<svg id="document-pdf" xmlns="http://www.w3.org/2000/svg" width="24.814" height="24.815" viewBox="0 0 24.814 24.815">
  <path id="Path_56" data-name="Path 56" d="M32.317,19.772V18H27v8.862h1.772V23.317h2.659V21.545H28.772V19.772Z" transform="translate(-7.503 -5.592)" fill="#969696"/>
  <path id="Path_57" data-name="Path 57" d="M20.42,26.862H16.875V18H20.42a2.661,2.661,0,0,1,2.659,2.659V24.2a2.661,2.661,0,0,1-2.659,2.659ZM18.647,25.09H20.42a.887.887,0,0,0,.886-.886V20.659a.887.887,0,0,0-.886-.886H18.647Z" transform="translate(-5.354 -5.592)" fill="#969696"/>
  <path id="Path_58" data-name="Path 58" d="M11.181,18H6.75v8.862H8.522V24.2h2.659a1.775,1.775,0,0,0,1.772-1.772V19.772A1.774,1.774,0,0,0,11.181,18ZM8.522,22.431V19.772h2.659v2.659Z" transform="translate(-3.205 -5.592)" fill="#969696"/>
  <path id="Path_59" data-name="Path 59" d="M19.975,12.885V9.34a.807.807,0,0,0-.265-.62l-6.2-6.2a.806.806,0,0,0-.621-.266H4.022A1.778,1.778,0,0,0,2.25,4.022v21.27a1.772,1.772,0,0,0,1.772,1.772H18.2V25.292H4.022V4.022h7.09V9.34a1.778,1.778,0,0,0,1.772,1.772H18.2v1.772ZM12.885,9.34V4.377L17.848,9.34Z" transform="translate(-2.25 -2.25)" fill="#969696"/>
</svg>
