<svg id="Group_62" data-name="Group 62" xmlns="http://www.w3.org/2000/svg" xmlns:xlink="http://www.w3.org/1999/xlink" width="26.039" height="26.039" viewBox="0 0 26.039 26.039">
  <defs>
    <linearGradient id="linear-gradient" y1="0.929" x2="0.9" y2="0.119" gradientUnits="objectBoundingBox">
      <stop offset="0" stop-color="#fd5"/>
      <stop offset="0.5" stop-color="#ff543e"/>
      <stop offset="1" stop-color="#c837ab"/>
    </linearGradient>
  </defs>
  <ellipse id="Ellipse_5" data-name="Ellipse 5" cx="13.019" cy="13.019" rx="13.019" ry="13.019" fill="url(#linear-gradient)"/>
  <path id="Path_65" data-name="Path 65" d="M11,3.138c-3.224,0-6.286-.287-7.455,2.714-.483,1.24-.413,2.849-.413,5.154a16.422,16.422,0,0,0,.413,5.154c1.167,3,4.253,2.715,7.453,2.715,3.087,0,6.271.321,7.454-2.715.484-1.252.413-2.838.413-5.154,0-3.074.17-5.059-1.321-6.549C16.039,2.949,14,3.138,11,3.138ZM10.3,4.556c6.725-.011,7.581-.758,7.109,9.628-.168,3.673-2.965,3.27-6.4,3.27-6.269,0-6.449-.179-6.449-6.451,0-6.344.5-6.444,5.743-6.449Zm4.9,1.306a.944.944,0,1,0,.944.944A.944.944,0,0,0,15.2,5.862ZM11,6.966a4.041,4.041,0,1,0,4.039,4.041A4.041,4.041,0,0,0,11,6.966Zm0,1.418c3.467,0,3.472,5.246,0,5.246S7.533,8.384,11,8.384Z" transform="translate(2.036 2.037)" fill="#fff"/>
</svg>
