<svg id="linkedin" xmlns="http://www.w3.org/2000/svg" width="26.039" height="26.039" viewBox="0 0 26.039 26.039">
  <ellipse id="Ellipse_5" data-name="Ellipse 5" cx="13.019" cy="13.019" rx="13.019" ry="13.019" transform="translate(0)" fill="#007ab9"/>
  <g id="Group_61" data-name="Group 61" transform="translate(6.282 5.563)">
    <path id="Path_64" data-name="Path 64" d="M41.584,32.473v5.368H38.472V32.833c0-1.257-.449-2.116-1.576-2.116a1.7,1.7,0,0,0-1.6,1.138,2.13,2.13,0,0,0-.1.758V37.84H32.085s.042-8.482,0-9.36H35.2v1.326c-.006.01-.015.021-.021.031H35.2v-.031A3.09,3.09,0,0,1,38,28.261c2.047,0,3.582,1.338,3.582,4.212Zm-12.755-8.5a1.622,1.622,0,1,0-.041,3.235h.02a1.622,1.622,0,1,0,.021-3.235ZM27.253,37.841h3.111v-9.36H27.253Z" transform="translate(-27.068 -23.969)" fill="#f1f2f2"/>
  </g>
</svg>
