<svg xmlns="http://www.w3.org/2000/svg" width="39.999" height="50.864" viewBox="0 0 39.999 50.864">
  <path id="Path_795" data-name="Path 795" d="M54.886,17.483,44.958,6.294a1.437,1.437,0,0,0-1.076-.483H16.689A1.439,1.439,0,0,0,15.25,7.25V55.236a1.439,1.439,0,0,0,1.439,1.439H53.81a1.439,1.439,0,0,0,1.439-1.439v-36.8A1.441,1.441,0,0,0,54.886,17.483ZM45.3,11.013l5.376,6.058H45.3ZM52.371,53.8H18.128V8.689H42.42v9.821a1.439,1.439,0,0,0,1.439,1.439h8.513ZM23.281,30.331A1.439,1.439,0,0,0,24.72,31.77H45.778a1.439,1.439,0,1,0,0-2.878H24.72A1.439,1.439,0,0,0,23.281,30.331Zm22.5,6.338H24.72a1.439,1.439,0,1,0,0,2.878H45.778a1.439,1.439,0,1,0,0-2.878Zm0,7.775H24.72a1.439,1.439,0,1,0,0,2.878H45.778a1.439,1.439,0,1,0,0-2.878Z" transform="translate(-15.25 -5.811)" fill="#bf9f35"/>
</svg>
