<svg xmlns="http://www.w3.org/2000/svg" width="47.714" height="41.746" viewBox="0 0 47.714 41.746">
  <path id="Path_792" data-name="Path 792" d="M43.812,43.736H3.9A3.856,3.856,0,0,1,.512,41.782a3.787,3.787,0,0,1,.019-3.838L20.486,3.91a3.914,3.914,0,0,1,6.738,0L47.18,37.946a3.783,3.783,0,0,1,.021,3.838A3.86,3.86,0,0,1,43.812,43.736ZM3.1,39.453a.815.815,0,0,0,0,.847.9.9,0,0,0,.8.455H43.812a.9.9,0,0,0,.8-.456.812.812,0,0,0,0-.845L24.652,5.419a.932.932,0,0,0-1.592,0Zm20.752-9.12a1.491,1.491,0,0,1-1.491-1.491V16.914a1.491,1.491,0,0,1,2.982,0V28.842A1.491,1.491,0,0,1,23.856,30.333Zm0,5.964a1.476,1.476,0,1,1,1.059-.432,1.54,1.54,0,0,1-1.059.432Z" transform="translate(0.001 -1.99)" fill="#bf9f35"/>
</svg>
