<svg xmlns="http://www.w3.org/2000/svg" width="48.374" height="42.207" viewBox="0 0 48.374 42.207">
  <path id="Path_794" data-name="Path 794" d="M0,42.207V11.421a4.81,4.81,0,0,1,4.8-4.8H13.35V0H35.013V6.617H43.57a4.81,4.81,0,0,1,4.8,4.8V42.207Zm2.836-2.836h42.7V29.252H40.812v3.781H32.178V29.252H16.186v3.781H7.552V29.252H2.836ZM35.013,30.2h2.963V26.417H35.013Zm-24.626,0H13.35V26.417H10.387Zm30.425-6.616v2.836h4.727v-15A1.971,1.971,0,0,0,43.57,9.453H4.8a1.971,1.971,0,0,0-1.968,1.968v15H7.552V23.581h8.634v2.836H32.178V23.581ZM16.186,6.617H32.178V2.836H16.186Zm2.1,11.476V15.257h11.8v2.836Z" fill="#bf9f35"/>
</svg>
