<svg xmlns="http://www.w3.org/2000/svg" width="40" height="50.913" viewBox="0 0 40 50.913">
  <path id="Path_536" data-name="Path 536" d="M5.091,50.913A4.876,4.876,0,0,1,0,46.307V11.58A5.151,5.151,0,0,1,5.091,6.671H9.7V4.61c0-.667.667-.969,1.333-.969h3.515A5.516,5.516,0,0,1,19.939,0,5.421,5.421,0,0,1,25.333,3.64h3.576c.667,0,1.394.3,1.394.969V6.671h4.606A5.151,5.151,0,0,1,40,11.58V46.307a4.876,4.876,0,0,1-5.091,4.606ZM2.424,11.58V46.307a2.458,2.458,0,0,0,2.666,2.182H34.909a2.458,2.458,0,0,0,2.666-2.182V11.58a2.728,2.728,0,0,0-2.667-2.485H30.3v3.091a1.333,1.333,0,0,1-1.394,1.151H11.03A1.273,1.273,0,0,1,9.7,12.186V9.095H5.091A2.727,2.727,0,0,0,2.424,11.58Zm9.7-.667H27.879V6.065H24.424a1.334,1.334,0,0,1-1.212-1.091,3.455,3.455,0,0,0-3.273-2.727,3.515,3.515,0,0,0-3.333,2.727,1.335,1.335,0,0,1-1.152,1.091H12.121ZM8.909,42.973,6.424,40.428a1.273,1.273,0,0,1,0-1.757,1.212,1.212,0,0,1,1.7.061l1.636,1.7,3.879-3.7a1.212,1.212,0,0,1,1.7.061c.024.023.048.046.069.07a1.151,1.151,0,0,1-.07,1.627l-4.727,4.485a1.212,1.212,0,0,1-.848.364H9.722A1.091,1.091,0,0,1,8.909,42.973Zm9.879-1.151a1.212,1.212,0,0,1,0-2.424H32.727a1.212,1.212,0,0,1,0,2.424ZM8.909,33.276,6.424,30.731a1.273,1.273,0,0,1,0-1.757,1.212,1.212,0,0,1,1.7.061l1.636,1.7,3.879-3.7a1.212,1.212,0,0,1,1.7.061.97.97,0,0,1,.069.07,1.151,1.151,0,0,1-.07,1.627l-4.727,4.484a1.214,1.214,0,0,1-.848.364H9.724A1.091,1.091,0,0,1,8.909,33.276Zm9.879-1.151a1.212,1.212,0,1,1,0-2.424H32.727a1.212,1.212,0,0,1,0,2.424ZM8.909,23.579,6.424,21.034a1.273,1.273,0,0,1,0-1.757,1.212,1.212,0,0,1,1.7.061l1.636,1.7,3.879-3.7a1.212,1.212,0,0,1,1.7.061.97.97,0,0,1,.069.07,1.151,1.151,0,0,1-.07,1.627l-4.727,4.484a1.214,1.214,0,0,1-.848.364H9.724A1.091,1.091,0,0,1,8.909,23.579Zm9.879-1.151a1.212,1.212,0,1,1,0-2.424H32.727a1.212,1.212,0,0,1,0,2.424Z" transform="translate(0 0)" fill="#bf9f35"/>
</svg>
