<svg xmlns="http://www.w3.org/2000/svg" width="39.001" height="53.541" viewBox="0 0 39.001 53.541">
  <path id="Path_789" data-name="Path 789" d="M23.183,53.315a1.144,1.144,0,0,1-.385-.5l-3.3-7.406-3.3,7.417a1.144,1.144,0,0,1-.141.252l-.014.019h0a1.139,1.139,0,0,1-.382.319l-.007,0-.026.013-.018.008-.007,0a1.147,1.147,0,0,1-1.391-.365L9.895,47.245l-7.225.692a1.148,1.148,0,0,1-1.177-1.563v0l.009-.022,0-.007.006-.014L7.9,31.981c-.227-.034-.485-.061-.791-.085a3.848,3.848,0,0,1-3.384-1.668,3.672,3.672,0,0,1-.741-2.7,7.926,7.926,0,0,1,.227-1.144,3.723,3.723,0,0,0,.012-2.327,3.467,3.467,0,0,0-1.094-1.627c-.12-.107-.576-.5-.564-.489A3.787,3.787,0,0,1,0,18.766a3.788,3.788,0,0,1,1.565-3.173c-.012.01.444-.382.564-.489a3.467,3.467,0,0,0,1.094-1.627,3.723,3.723,0,0,0-.012-2.327,7.926,7.926,0,0,1-.227-1.144,3.675,3.675,0,0,1,.741-2.7A3.848,3.848,0,0,1,7.109,5.635,3.791,3.791,0,0,0,9.44,4.92a3.332,3.332,0,0,0,.908-.964,6.7,6.7,0,0,0,.537-1.14,3.828,3.828,0,0,1,2.589-2.6,3.736,3.736,0,0,1,3.308.4c.157.089.776.465.63.378a3.621,3.621,0,0,0,2.087.659A3.6,3.6,0,0,0,21.57,1c-.062.037.5-.3.649-.388a3.736,3.736,0,0,1,3.308-.4,3.828,3.828,0,0,1,2.589,2.6,6.7,6.7,0,0,0,.537,1.14,3.332,3.332,0,0,0,.908.964,3.791,3.791,0,0,0,2.331.714A3.848,3.848,0,0,1,35.276,7.3a3.675,3.675,0,0,1,.741,2.7,8.231,8.231,0,0,1-.227,1.144,3.723,3.723,0,0,0-.012,2.327A3.467,3.467,0,0,0,36.872,15.1c.12.107.576.5.564.489A3.788,3.788,0,0,1,39,18.766a3.787,3.787,0,0,1-1.565,3.171c.012-.01-.444.382-.564.489a3.467,3.467,0,0,0-1.094,1.627,3.723,3.723,0,0,0,.012,2.327,8.231,8.231,0,0,1,.227,1.144,3.672,3.672,0,0,1-.741,2.7A3.848,3.848,0,0,1,31.892,31.9c-.306.024-.565.051-.792.085l6.389,14.348.006.014,0,.007.009.023h0a1.145,1.145,0,0,1-.42,1.368h0l-.007,0a1.145,1.145,0,0,1-.75.19l-7.225-.692-4.317,5.831a1.145,1.145,0,0,1-.774.455h0l-.027,0h0l-.027,0h0c-.03,0-.059,0-.089,0A1.143,1.143,0,0,1,23.183,53.315Zm-8.3-3.184L18.194,42.7a1.16,1.16,0,0,1,.054-.106L15.9,37.327a3.6,3.6,0,0,1-2.429-.015,3.828,3.828,0,0,1-2.589-2.6,6.87,6.87,0,0,0-.537-1.14,3.252,3.252,0,0,0-.41-.532L4.407,45.466l5.85-.56a1.146,1.146,0,0,1,.92.265l.005,0,.01.009a1.149,1.149,0,0,1,.187.213Zm9.23,0,3.534-4.773a1.148,1.148,0,0,1,1.095-.452l5.85.56L29.062,33.043a3.253,3.253,0,0,0-.41.532,6.869,6.869,0,0,0-.537,1.14,3.828,3.828,0,0,1-2.589,2.6,3.742,3.742,0,0,1-3.308-.394c-.147-.085-.7-.418-.651-.391a3.593,3.593,0,0,0-2.068-.647,3.232,3.232,0,0,0-1.566.37Zm-.759-15.206a1.519,1.519,0,0,0,1.462.2c.626-.2.818-.434,1.181-1.3a8.313,8.313,0,0,1,.7-1.462,5.646,5.646,0,0,1,1.507-1.613,5.886,5.886,0,0,1,3.5-1.146c1.051-.083,1.313-.182,1.71-.729a1.4,1.4,0,0,0,.316-1.1,6.616,6.616,0,0,0-.178-.865,5.85,5.85,0,0,1,.037-3.568,5.694,5.694,0,0,1,1.736-2.618c.147-.134.628-.547.595-.518.619-.541.78-.809.78-1.443s-.161-.9-.78-1.445c.033.029-.448-.384-.595-.518A5.694,5.694,0,0,1,33.6,14.185a5.844,5.844,0,0,1-.037-3.566,6.688,6.688,0,0,0,.178-.867,1.4,1.4,0,0,0-.316-1.1c-.4-.547-.659-.644-1.71-.729a5.886,5.886,0,0,1-3.5-1.146A5.646,5.646,0,0,1,26.7,5.164,8.313,8.313,0,0,1,26,3.7c-.363-.867-.555-1.1-1.181-1.3a1.519,1.519,0,0,0-1.462.2c-.124.072-.7.421-.584.353a5.8,5.8,0,0,1-3.273.987,5.789,5.789,0,0,1-3.271-.987c.114.068-.46-.281-.584-.353a1.519,1.519,0,0,0-1.462-.2c-.626.2-.818.434-1.181,1.3a8.313,8.313,0,0,1-.7,1.462,5.625,5.625,0,0,1-1.509,1.613,5.875,5.875,0,0,1-3.5,1.146c-1.051.085-1.313.182-1.71.729a1.391,1.391,0,0,0-.316,1.1,6.328,6.328,0,0,0,.178.867,5.844,5.844,0,0,1-.037,3.566A5.694,5.694,0,0,1,3.669,16.8c-.144.132-.611.531-.6.519-.616.54-.777.809-.777,1.444s.161.9.777,1.442c-.014-.012.454.388.6.519a5.694,5.694,0,0,1,1.736,2.618,5.85,5.85,0,0,1,.037,3.568,6.261,6.261,0,0,0-.178.865,1.389,1.389,0,0,0,.316,1.1c.4.547.659.646,1.71.729a5.875,5.875,0,0,1,3.5,1.146A5.625,5.625,0,0,1,12.3,32.367a8.313,8.313,0,0,1,.7,1.462c.363.867.555,1.1,1.181,1.3a1.519,1.519,0,0,0,1.462-.2c.119-.07.656-.4.594-.359a5.914,5.914,0,0,1,6.534.006l-.015-.009S23.243,34.859,23.356,34.925ZM3.072,20.209ZM21.573,1h0Zm.006,0,.008,0Zm-5.34,33.568-.009.006Zm-9.357-15.8A12.619,12.619,0,1,1,19.5,31.384,12.618,12.618,0,0,1,6.882,18.766Zm2.294,0A10.324,10.324,0,1,0,19.5,8.443,10.325,10.325,0,0,0,9.176,18.766Zm14.032,6.663a.58.58,0,0,1-.064-.021.008.008,0,0,0-.006,0l-.025-.01-.006,0-.027-.012-.012-.006-.014-.006c-.012-.006-.027-.012-.041-.021L19.5,23.5l-3.51,1.846c-.014.008-.029.014-.041.021l-.014.006-.012.006-.027.012-.006,0-.025.01a.008.008,0,0,0-.006,0,.58.58,0,0,1-.064.021,1.153,1.153,0,0,1-.533.035,1.135,1.135,0,0,1-.454-.184l-.006,0a.115.115,0,0,1-.017-.012,1.128,1.128,0,0,1-.345-.4,1.143,1.143,0,0,1-.107-.764L15,20.228l-2.843-2.769a1.144,1.144,0,0,1-.289-1.177s0-.008,0-.012v0a1.152,1.152,0,0,1,.958-.77l3.89-.566,1.755-3.558a1.144,1.144,0,0,1,.888-.63.045.045,0,0,1,.017,0l.019,0,.019,0h.017a.077.077,0,0,1,.023,0h.012l.035,0h0l.035,0h.012a.077.077,0,0,1,.023,0h.017l.019,0a.057.057,0,0,1,.019,0,.045.045,0,0,1,.017,0,1.144,1.144,0,0,1,.888.63l1.755,3.558,3.89.568a1.062,1.062,0,0,1,.287.07l.014.006s.006,0,.008,0a1.151,1.151,0,0,1,.63.642,1.1,1.1,0,0,1,.072.3,1.141,1.141,0,0,1-.165.725v0l-.012.019s-.006.008-.008.012l-.006.008a1.091,1.091,0,0,1-.167.2L24,20.228l.667,3.892a1.134,1.134,0,0,1,.021.223v.037a1.148,1.148,0,0,1-.952,1.084,1.048,1.048,0,0,1-.2.017A1.082,1.082,0,0,1,23.208,25.429ZM19.5,21.06h0a1.146,1.146,0,0,1,.533.13l1.988,1.045-.38-2.213A1.149,1.149,0,0,1,22,18.977l1.577-1.538-2.224-.322a1.149,1.149,0,0,1-.878-.655L19.5,14.476l-.981,1.986a1.142,1.142,0,0,1-.875.655l-2.224.322L17,18.977a1.151,1.151,0,0,1,.361,1.045l-.38,2.213,1.988-1.045a1.129,1.129,0,0,1,.52-.13Z" transform="translate(0 0)" fill="#bf9f35"/>
</svg>
