<svg xmlns="http://www.w3.org/2000/svg" width="59.123" height="40.639" viewBox="0 0 59.123 40.639">
  <path id="Path_793" data-name="Path 793" d="M14.685,34.256c-1.107.1-2.448.155-4.2.155-4.916,0-10.487,0-10.487-5.9A11.354,11.354,0,0,1,6.191,18.383a6.817,6.817,0,1,1,8.58.011A10.948,10.948,0,0,1,18.7,21.715,15.738,15.738,0,0,1,24.334,17.6a9.584,9.584,0,1,1,10.438-.007,15.725,15.725,0,0,1,5.618,4.082,10.933,10.933,0,0,1,3.938-3.3,6.817,6.817,0,1,1,8.569.038,11.538,11.538,0,0,1,6.227,10.1c.065,5.9-5.506,5.9-10.422,5.9-1.783,0-3.142-.061-4.262-.161-1.04,6.388-8.043,6.388-14.878,6.388S15.727,40.639,14.685,34.256Zm14.877,3.76c9.439,0,12.388-.786,12.388-5.506q0-.317-.015-.631a14.047,14.047,0,0,0-2.476-7.169L39,24.055l0-.008a12.156,12.156,0,0,0-9.443-4.908c-6.594,0-12.342,6.178-12.388,13.287,0,.007,0,.013,0,.019v.18C17.221,37.243,20.2,38.016,29.561,38.016Zm12.52-14.092a16.816,16.816,0,0,1,2.491,7.734,36.411,36.411,0,0,0,4.129.131c6.489,0,7.865-.59,7.865-3.278-.065-4.522-3.736-8.521-7.931-8.521A7.92,7.92,0,0,0,42.081,23.925ZM2.622,28.512C2.622,31.2,4,31.79,10.487,31.79c1.746,0,3.045-.064,4.087-.128a16.327,16.327,0,0,1,2.453-7.7,7.838,7.838,0,0,0-6.54-3.975C6.293,19.992,2.622,23.99,2.622,28.512Zm41.818-15.4a4.195,4.195,0,1,0,4.195-4.195A4.224,4.224,0,0,0,44.441,13.109Zm-38.148,0a4.195,4.195,0,1,0,4.195-4.195A4.224,4.224,0,0,0,6.293,13.109ZM22.613,9.57a6.948,6.948,0,1,0,6.948-6.948A6.994,6.994,0,0,0,22.613,9.57Z" fill="#bf9f35"/>
</svg>
