<svg xmlns="http://www.w3.org/2000/svg" width="29.927" height="21.375" viewBox="0 0 29.927 21.375">
  <path id="Path_872" data-name="Path 872" d="M-8363.727,19185.375a5.061,5.061,0,0,1-2.507-.559l8.92-8.918.647.646a5.178,5.178,0,0,0,3.628,1.752,5.167,5.167,0,0,0,3.626-1.752l.648-.646,8.921,8.918a5.069,5.069,0,0,1-2.509.559Zm16.173-10.687,8.921-8.922a5.076,5.076,0,0,1,.558,2.512v12.822a5.066,5.066,0,0,1-.558,2.508ZM-8368,19181.1v-12.822a5.092,5.092,0,0,1,.559-2.512l8.922,8.922-8.922,8.92A5.076,5.076,0,0,1-8368,19181.1Zm12.546-5.764-10.777-10.779a5.081,5.081,0,0,1,2.507-.557h21.375a5.086,5.086,0,0,1,2.509.557l-10.777,10.779a3.506,3.506,0,0,1-2.418,1.246A3.506,3.506,0,0,1-8355.456,19175.336Z" transform="translate(8368.002 -19164)" fill="#bf9f35"/>
</svg>
