<svg xmlns="http://www.w3.org/2000/svg" width="34.714" height="52.734" viewBox="0 0 34.714 52.734">
  <path id="Path_790" data-name="Path 790" d="M16.067-3221.4a1.03,1.03,0,0,1-.532-.9v-5.557H.03a1.03,1.03,0,0,1-1.03-1.03v-44.084A1.03,1.03,0,0,1,.03-3274H23.364l.036,0a.177.177,0,0,1,.033,0,1.288,1.288,0,0,1,.133.015,1.016,1.016,0,0,1,.128.036l.033.011c.038.015.076.032.114.05,0,0,0,0,.007,0a1.209,1.209,0,0,1,.114.071l.028.021a.77.77,0,0,1,.1.088l9.321,9.32a1.04,1.04,0,0,1,.09.1c0,.009.012.016.019.026a1.07,1.07,0,0,1,.071.113.007.007,0,0,1,0,0,.749.749,0,0,1,.052.121.293.293,0,0,1,.012.031,1.063,1.063,0,0,1,.036.127c.007.045.012.087.017.132v.034c0,.011,0,.022,0,.035v34.764a1.03,1.03,0,0,1-1.03,1.03H26.536v5.557a1.03,1.03,0,0,1-.532.9,1.032,1.032,0,0,1-.5.128,1.041,1.041,0,0,1-.548-.156l-3.923-2.461-3.923,2.461a1.035,1.035,0,0,1-.547.157A1.035,1.035,0,0,1,16.067-3221.4Zm5.517-4.577,2.893,1.815v-9.269c-.109,0-.216-.007-.32-.012-.138-.007-.266-.014-.382-.014a1.038,1.038,0,0,0-.292.026,2.777,2.777,0,0,0-.548.385,3.026,3.026,0,0,1-1.9.868,3.038,3.038,0,0,1-1.9-.868,2.709,2.709,0,0,0-.548-.385,1.038,1.038,0,0,0-.292-.026c-.116,0-.244.007-.38.014-.1.005-.211.008-.323.012v9.269l2.893-1.815a1.034,1.034,0,0,1,.548-.157A1.034,1.034,0,0,1,21.584-3225.974Zm4.532-21.739a2.893,2.893,0,0,1,.963,1.751,2.587,2.587,0,0,0,.2.617,2.794,2.794,0,0,0,.524.381,2.906,2.906,0,0,1,1.388,1.472,2.986,2.986,0,0,1-.218,2.012,2.754,2.754,0,0,0-.2.705,2.758,2.758,0,0,0,.2.706,2.987,2.987,0,0,1,.218,2.011,2.919,2.919,0,0,1-1.388,1.473,2.648,2.648,0,0,0-.524.382,2.533,2.533,0,0,0-.2.617,3.771,3.771,0,0,1-.543,1.327v4.343h5.119v-32.705H23.364a1.03,1.03,0,0,1-1.03-1.03v-8.292H1.06v42.026H15.537v-4.343a3.727,3.727,0,0,1-.543-1.327,2.757,2.757,0,0,0-.2-.617,2.829,2.829,0,0,0-.524-.382,2.9,2.9,0,0,1-1.388-1.473,2.973,2.973,0,0,1,.216-2.011,2.758,2.758,0,0,0,.2-.706,2.754,2.754,0,0,0-.2-.705,2.972,2.972,0,0,1-.216-2.012,2.887,2.887,0,0,1,1.388-1.472,2.76,2.76,0,0,0,.524-.384,2.749,2.749,0,0,0,.2-.615,2.869,2.869,0,0,1,.963-1.751,2.435,2.435,0,0,1,1.476-.411c.168,0,.327.009.484.017.135.007.266.014.38.014a1.028,1.028,0,0,0,.292-.029,2.711,2.711,0,0,0,.548-.382,3.037,3.037,0,0,1,1.9-.868,3.037,3.037,0,0,1,1.9.868,2.706,2.706,0,0,0,.546.382,1.028,1.028,0,0,0,.292.029c.116,0,.244-.007.382-.014.154-.008.316-.017.482-.017A2.446,2.446,0,0,1,26.116-3247.712Zm-6.877,12.332a3.879,3.879,0,0,1,1.189.731,2.594,2.594,0,0,0,.607.416,2.594,2.594,0,0,0,.607-.416,3.879,3.879,0,0,1,1.189-.731,2.869,2.869,0,0,1,.942-.133c.168,0,.33.008.484.017.138.005.266.012.38.012a1.308,1.308,0,0,0,.256-.02,3.363,3.363,0,0,0,.19-.6,3.722,3.722,0,0,1,.539-1.319,3.746,3.746,0,0,1,1.084-.906,2.9,2.9,0,0,0,.529-.385,3.087,3.087,0,0,0-.192-.65,4.1,4.1,0,0,1-.325-1.415,4.113,4.113,0,0,1,.325-1.414,3.039,3.039,0,0,0,.192-.65,3.037,3.037,0,0,0-.529-.385,3.7,3.7,0,0,1-1.084-.906,3.722,3.722,0,0,1-.539-1.317,3.3,3.3,0,0,0-.19-.6,1.405,1.405,0,0,0-.256-.018c-.114,0-.242.006-.38.013-.154.007-.316.018-.484.018a2.942,2.942,0,0,1-.942-.133,3.9,3.9,0,0,1-1.189-.734,2.436,2.436,0,0,0-.612-.412,2.648,2.648,0,0,0-.6.412,3.9,3.9,0,0,1-1.189.734,2.922,2.922,0,0,1-.942.133c-.166,0-.327-.01-.484-.018-.135-.007-.263-.013-.38-.013a1.348,1.348,0,0,0-.254.018,3.289,3.289,0,0,0-.192.6,3.715,3.715,0,0,1-.536,1.317,3.7,3.7,0,0,1-1.087.906,3.131,3.131,0,0,0-.529.385,3.183,3.183,0,0,0,.192.65,4.06,4.06,0,0,1,.327,1.414,4.042,4.042,0,0,1-.327,1.415,3.236,3.236,0,0,0-.192.65,3.081,3.081,0,0,0,.529.385,3.754,3.754,0,0,1,1.087.906,3.715,3.715,0,0,1,.536,1.319,3.167,3.167,0,0,0,.192.6,1.255,1.255,0,0,0,.254.02c.116,0,.244-.007.38-.012.157-.009.318-.017.484-.017A2.85,2.85,0,0,1,19.239-3235.38Zm5.154-29.3h5.8l-5.8-5.8Zm2.345,11.429a1.032,1.032,0,0,1,1.03-1.03,1.032,1.032,0,0,1,1.03,1.03,1.033,1.033,0,0,1-1.03,1.031A1.033,1.033,0,0,1,26.738-3253.251ZM5.063-3252.22a1.031,1.031,0,0,1-1.03-1.031,1.029,1.029,0,0,1,1.03-1.03H23.648a1.03,1.03,0,0,1,1.03,1.03,1.033,1.033,0,0,1-1.03,1.031Zm0-5.2a1.03,1.03,0,0,1-1.03-1.029,1.032,1.032,0,0,1,1.03-1.033h22.7a1.033,1.033,0,0,1,1.03,1.033,1.032,1.032,0,0,1-1.03,1.029Zm0-5.2a1.029,1.029,0,0,1-1.03-1.03,1.029,1.029,0,0,1,1.03-1.03h13.27a1.03,1.03,0,0,1,1.03,1.03,1.03,1.03,0,0,1-1.03,1.03Z" transform="translate(1 3274.001)" fill="#bf9f35"/>
</svg>
