<svg xmlns="http://www.w3.org/2000/svg" width="21.261" height="12.491" viewBox="0 0 21.261 12.491">
  <path id="Path_74" data-name="Path 74" d="M2.326,12.492A2.333,2.333,0,0,1,0,10.166V2.327A2.333,2.333,0,0,1,2.326,0h9.7a2.318,2.318,0,0,1,2.326,2.326v7.839a2.333,2.333,0,0,1-2.326,2.326ZM19.869,11.22a1.383,1.383,0,0,1-.7-.193L15.515,8.933v-5.4l3.629-2.094a1.184,1.184,0,0,1,.4-.163,1.4,1.4,0,0,1,1.721,1.349V9.817a1.421,1.421,0,0,1-.186.7,1.4,1.4,0,0,1-1.206.7Z" transform="translate(0 -0.001)" fill="#fff"/>
</svg>
