<svg xmlns="http://www.w3.org/2000/svg" width="51.717" height="44.1" viewBox="0 0 51.717 44.1">
  <path id="Path_791" data-name="Path 791" d="M43.906,43.876l-7.131-4.924H18.481A5.312,5.312,0,0,1,13.9,36.308l-4.86,3.355A1.243,1.243,0,0,1,7.1,38.641l-.006-4.986H6.152A6.18,6.18,0,0,1,0,27.5V6.152A6.18,6.18,0,0,1,6.152,0H39.968A6.18,6.18,0,0,1,46.12,6.152v4.562h.3a5.308,5.308,0,0,1,5.3,5.3V33.652a5.308,5.308,0,0,1-5.3,5.3h-.559v3.9a1.264,1.264,0,0,1-1.25,1.245A1.229,1.229,0,0,1,43.906,43.876ZM15.96,34.887a2.822,2.822,0,0,0,2.522,1.571H37.153a1.244,1.244,0,0,1,.8.289l5.415,3.738V37.7a1.248,1.248,0,0,1,1.247-1.247h1.806a2.815,2.815,0,0,0,2.806-2.806V16.014a2.814,2.814,0,0,0-2.806-2.806h-.3V27.5a6.179,6.179,0,0,1-6.152,6.152H17.745ZM2.494,6.152V27.5a3.665,3.665,0,0,0,3.658,3.658H8.338a1.249,1.249,0,0,1,1.247,1.247v3.864l6.985-4.823a1.244,1.244,0,0,1,.8-.289h22.6A3.665,3.665,0,0,0,43.626,27.5V6.152a3.665,3.665,0,0,0-3.658-3.658H6.152A3.665,3.665,0,0,0,2.494,6.152ZM29.911,16.828a2.562,2.562,0,1,1,2.562,2.561A2.56,2.56,0,0,1,29.911,16.828Zm-9.413,0A2.562,2.562,0,1,1,23.06,19.39,2.56,2.56,0,0,1,20.5,16.828Zm-9.413,0a2.562,2.562,0,1,1,2.562,2.561A2.56,2.56,0,0,1,11.085,16.828Z" fill="#bf9f35"/>
</svg>
