<svg xmlns="http://www.w3.org/2000/svg" width="20.492" height="20.492" viewBox="0 0 20.492 20.492">
  <path id="Path_787" data-name="Path 787" d="M-12222,8454.246a10.258,10.258,0,0,1,10.246-10.246,10.258,10.258,0,0,1,10.246,10.246,10.258,10.258,0,0,1-10.246,10.246A10.258,10.258,0,0,1-12222,8454.246Zm1.587,0a8.67,8.67,0,0,0,8.659,8.658,8.67,8.67,0,0,0,8.659-8.658,8.669,8.669,0,0,0-8.659-8.659A8.671,8.671,0,0,0-12220.413,8454.246Zm11.357,3.08-3.175-2.381a.8.8,0,0,1-.317-.637v-4.761a.794.794,0,0,1,.794-.794.794.794,0,0,1,.794.794v4.364l2.857,2.144a.792.792,0,0,1,.158,1.11.788.788,0,0,1-.636.318A.8.8,0,0,1-12209.056,8457.326Z" transform="translate(12222 -8444)" fill="#bf9f35"/>
</svg>
