<svg xmlns="http://www.w3.org/2000/svg" width="18.676" height="17.509" viewBox="0 0 18.676 17.509">
  <path id="Path_783" data-name="Path 783" d="M0,14.591V9.922C0,8.026,3.308,7,6.42,7s6.42,1.023,6.42,2.918v4.669c0,1.9-3.308,2.918-6.42,2.918S0,16.487,0,14.591Zm1.167,0c0,.713,2.046,1.751,5.253,1.751s5.253-1.038,5.253-1.751v-.608A10.59,10.59,0,0,1,6.42,15.175a10.59,10.59,0,0,1-5.253-1.192Zm0-2.335c0,.713,2.046,1.751,5.253,1.751s5.253-1.038,5.253-1.751v-.608A10.59,10.59,0,0,1,6.42,12.84a10.59,10.59,0,0,1-5.253-1.192Zm0-2.335c0,.713,2.046,1.751,5.253,1.751s5.253-1.038,5.253-1.751S9.626,8.171,6.42,8.171,1.167,9.209,1.167,9.922Zm11.675,7.006a.584.584,0,0,1,.532-.63c2.7-.225,4.134-1.136,4.134-1.707v-.609a7.818,7.818,0,0,1-2.817.985.508.508,0,0,1-.1.009.583.583,0,0,1-.1-1.158c1.962-.347,3.02-1.063,3.02-1.562v-.609a7.818,7.818,0,0,1-2.817.985.508.508,0,0,1-.1.009.583.583,0,0,1-.1-1.158c1.962-.347,3.02-1.063,3.02-1.562V9.312a7.8,7.8,0,0,1-2.817.985.511.511,0,0,1-.1.009.583.583,0,0,1-.1-1.158c1.962-.347,3.02-1.063,3.02-1.562V6.963a9.353,9.353,0,0,1-4.036,1.159l-.05,0a.584.584,0,0,1-.048-1.165c2.7-.225,4.134-1.136,4.134-1.707V4.645a10.591,10.591,0,0,1-5.253,1.192A10.591,10.591,0,0,1,7,4.645v.608a.584.584,0,1,1-1.167,0V2.918C5.836,1.023,9.144,0,12.256,0s6.42,1.023,6.42,2.918V14.591c0,1.682-2.614,2.652-5.2,2.869l-.05,0A.582.582,0,0,1,12.842,16.928ZM7,2.918c0,.713,2.046,1.751,5.253,1.751s5.253-1.038,5.253-1.751-2.046-1.751-5.253-1.751S7,2.2,7,2.918Z" transform="translate(0 0)" fill="#bf9f35"/>
</svg>
