<svg xmlns="http://www.w3.org/2000/svg" width="23.314" height="28.485" viewBox="0 0 23.314 28.485">
  <path id="Path_776" data-name="Path 776" d="M12.456.264A11.679,11.679,0,0,0,.793,11.915c0,4.46,2.821,8.527,5.505,11.547a40.532,40.532,0,0,0,5.374,5.027,1.3,1.3,0,0,0,1.558,0A40.61,40.61,0,0,0,18.6,23.462c2.684-3.02,5.505-7.087,5.505-11.547A11.669,11.669,0,0,0,12.456.264Zm-.005,6.476A5.179,5.179,0,1,1,7.272,11.92a5.179,5.179,0,0,1,5.179-5.179Z" transform="translate(-0.793 -0.264)" fill="#bf9f35" fill-rule="evenodd"/>
</svg>
