<svg xmlns="http://www.w3.org/2000/svg" width="19.291" height="15.661" viewBox="0 0 19.291 15.661">
  <path id="Path_68" data-name="Path 68" d="M16.971,6.127H14.182V5.841a2.32,2.32,0,0,0-2.319-2.319H7.427A2.319,2.319,0,0,0,5.108,5.841v.287H2.319A2.319,2.319,0,0,0,0,8.446v8.417a2.319,2.319,0,0,0,2.319,2.319H16.972a2.319,2.319,0,0,0,2.319-2.319V8.446A2.32,2.32,0,0,0,16.971,6.127ZM9.644,16.777a4.38,4.38,0,1,1,4.38-4.38A4.385,4.385,0,0,1,9.644,16.777Zm2.319-4.38a2.319,2.319,0,1,1-2.319-2.319A2.323,2.323,0,0,1,11.963,12.4Z" transform="translate(0 -3.522)" fill="#fff"/>
</svg>
