<svg xmlns="http://www.w3.org/2000/svg" width="28.332" height="28.332" viewBox="0 0 28.332 28.332">
  <g id="Phone_Call" data-name="Phone Call" transform="translate(-3.89 -3.885)">
    <path id="Path_777" data-name="Path 777" d="M31.779,27.132,28.611,30.3a6.552,6.552,0,0,1-7.909,1.04,41.584,41.584,0,0,1-9.046-6.888A41.587,41.587,0,0,1,4.768,15.4,6.555,6.555,0,0,1,5.808,7.5L8.975,4.328a1.511,1.511,0,0,1,2.354.273l3.122,5.043a2.509,2.509,0,0,1-.361,3.108l-1.674,1.674a.48.48,0,0,0-.121.487,14.277,14.277,0,0,0,3.637,5.261,14.271,14.271,0,0,0,5.261,3.637.48.48,0,0,0,.488-.121l1.674-1.674a2.511,2.511,0,0,1,3.108-.361l5.043,3.122a1.511,1.511,0,0,1,.273,2.354Z" transform="translate(0 0)" fill="#bf9f35"/>
  </g>
</svg>
