<svg xmlns="http://www.w3.org/2000/svg" width="23.043" height="23.042" viewBox="0 0 23.043 23.042">
  <g id="print" transform="translate(0 0)">
    <path id="Path_54" data-name="Path 54" d="M23.316,7.875H6.587a3.212,3.212,0,0,0-3.212,3.212v8.751a3.1,3.1,0,0,0,3.1,3.1h.444v2.2a2.233,2.233,0,0,0,2.233,2.233H20.639a2.233,2.233,0,0,0,2.233-2.233v-2.2h.444a3.1,3.1,0,0,0,3.1-3.1V10.977A3.1,3.1,0,0,0,23.316,7.875ZM21.1,25.139a.462.462,0,0,1-.461.461H9.153a.462.462,0,0,1-.461-.461V16.312a.462.462,0,0,1,.461-.461H20.639a.462.462,0,0,1,.461.461Zm1.44-11.951a1.33,1.33,0,1,1,1.219-1.219A1.33,1.33,0,0,1,22.54,13.188Z" transform="translate(-3.375 -4.33)" fill="#969696"/>
    <path id="Path_55" data-name="Path 55" d="M20.734,3.375H10.986a3.107,3.107,0,0,0-3.07,2.659H23.8a3.107,3.107,0,0,0-3.069-2.659Z" transform="translate(-4.339 -3.375)" fill="#969696"/>
  </g>
</svg>
