<svg id="twitter" xmlns="http://www.w3.org/2000/svg" width="26.039" height="26.039" viewBox="0 0 26.039 26.039">
  <ellipse id="Ellipse_4" data-name="Ellipse 4" cx="13.019" cy="13.019" rx="13.019" ry="13.019" transform="translate(0)" fill="#55acee"/>
  <g id="Group_60" data-name="Group 60" transform="translate(5.826 7.897)">
    <path id="Path_61" data-name="Path 61" d="M40.271,35.487a6.209,6.209,0,0,1-1.788.489,3.12,3.12,0,0,0,1.369-1.721,6.23,6.23,0,0,1-1.976.755,3.115,3.115,0,0,0-5.3,2.839A8.834,8.834,0,0,1,26.159,34.6a3.115,3.115,0,0,0,.963,4.155,3.09,3.09,0,0,1-1.409-.39c0,.013,0,.026,0,.039a3.114,3.114,0,0,0,2.5,3.051,3.124,3.124,0,0,1-1.405.054,3.115,3.115,0,0,0,2.907,2.161A6.282,6.282,0,0,1,25.1,44.957,8.85,8.85,0,0,0,38.727,37.5c0-.135,0-.269-.009-.4a6.311,6.311,0,0,0,1.553-1.611Z" transform="translate(-25.103 -34.028)" fill="#f1f2f2"/>
  </g>
</svg>
