<svg xmlns="http://www.w3.org/2000/svg" width="120" height="120" viewBox="0 0 120 120">
  <g id="Group_488" data-name="Group 488" transform="translate(-1168 -1869)">
    <g id="Ellipse_10" data-name="Ellipse 10" transform="translate(1168 1869)" fill="#fff" stroke="#bf9f35" stroke-width="1">
      <circle cx="60" cy="60" r="60" stroke="none"/>
      <circle cx="60" cy="60" r="59.5" fill="none"/>
    </g>
    <g id="Group_47" data-name="Group 47" transform="translate(-2 -97)">
      <rect id="Rectangle_16" data-name="Rectangle 16" width="80" height="80" transform="translate(1190 1986)" fill="none"/>
      <g id="tablet" transform="translate(1152.45 1984.14)">
        <path id="Path_254" data-name="Path 254" d="M84.3,229.888l2.228-3.811A2.526,2.526,0,0,0,86.7,224.2l-1.558-6.807a8.226,8.226,0,0,1,.528-5.2l2.621-4.978.085-7.305h-.123l-6.469,12.284a8.226,8.226,0,0,0-.528,5.2l1.558,6.807a2.526,2.526,0,0,1-.175,1.877l-2.228,3.812,8.727,2.242.005-.022a4.361,4.361,0,0,1,.239-.914Z" transform="translate(-25.601 -165.314)" fill="#d4e1f4"/>
        <g id="Group_44" data-name="Group 44" transform="translate(61.874 10)">
          <path id="Path_255" data-name="Path 255" d="M217.937,77.675h-14.55a1.037,1.037,0,0,0-1.036,1.036V89.889a1.037,1.037,0,0,0,1.036,1.036h14.55a1.037,1.037,0,0,0,1.036-1.036V78.711A1.037,1.037,0,0,0,217.937,77.675Zm-.518,11.7H203.905V79.229h13.514Z" transform="translate(-193.623 -68.91)" fill="#bf9f35"/>
          <path id="Path_256" data-name="Path 256" d="M248.513,109.943a1.039,1.039,0,0,0,1.036,0l3.772-2.182a1.036,1.036,0,0,0,0-1.794l-3.772-2.183a1.036,1.036,0,0,0-1.555.9v4.365a1.039,1.039,0,0,0,.519.9Zm1.036-4.363,2.22,1.284-2.22,1.284Z" transform="translate(-233.355 -91.517)" fill="#bf9f35"/>
          <path id="Path_257" data-name="Path 257" d="M222.743,199.187H208.649a.777.777,0,0,0,0,1.554h14.094a.777.777,0,1,0,0-1.554Z" transform="translate(-198.429 -174.685)" fill="#bf9f35"/>
          <path id="Path_258" data-name="Path 258" d="M222.743,245.767H208.649a.777.777,0,0,0,0,1.554h14.094a.777.777,0,1,0,0-1.554Z" transform="translate(-198.429 -215.232)" fill="#bf9f35"/>
          <path id="Path_259" data-name="Path 259" d="M222.743,292.347H208.649a.777.777,0,0,0,0,1.554h14.094a.777.777,0,1,0,0-1.554Z" transform="translate(-198.429 -255.779)" fill="#bf9f35"/>
          <path id="Path_260" data-name="Path 260" d="M222.743,338.926H208.649a.777.777,0,0,0,0,1.554h14.094a.777.777,0,1,0,0-1.554Z" transform="translate(-198.429 -296.326)" fill="#bf9f35"/>
          <path id="Path_261" data-name="Path 261" d="M350.836,79.489h-6.005a.777.777,0,0,0-.777.777v4.52a.777.777,0,0,0,.777.777h6.005a.777.777,0,0,0,.777-.777v-4.52A.777.777,0,0,0,350.836,79.489Zm-.777,4.52h-4.451V81.043h4.451Z" transform="translate(-316.974 -70.489)" fill="#bf9f35"/>
          <path id="Path_262" data-name="Path 262" d="M350.836,155.148h-6.005a.777.777,0,0,0-.777.777v4.52a.777.777,0,0,0,.777.777h6.005a.777.777,0,0,0,.777-.777v-4.52A.777.777,0,0,0,350.836,155.148Zm-.777,4.52h-4.451V156.7h4.451Z" transform="translate(-316.974 -136.349)" fill="#bf9f35"/>
          <path id="Path_263" data-name="Path 263" d="M350.836,230.807h-6.005a.777.777,0,0,0-.777.777v4.52a.777.777,0,0,0,.777.777h6.005a.777.777,0,0,0,.777-.777v-4.52A.777.777,0,0,0,350.836,230.807Zm-.777,4.52h-4.451v-2.966h4.451Z" transform="translate(-316.974 -202.21)" fill="#bf9f35"/>
          <path id="Path_264" data-name="Path 264" d="M350.836,306.466h-6.005a.777.777,0,0,0-.777.777v4.52a.777.777,0,0,0,.777.777h6.005a.777.777,0,0,0,.777-.777v-4.52A.777.777,0,0,0,350.836,306.466Zm-.777,4.52h-4.451V308.02h4.451Z" transform="translate(-316.974 -268.07)" fill="#bf9f35"/>
          <path id="Path_265" data-name="Path 265" d="M172.842,10H139.505a4.353,4.353,0,0,0-4.345,4.352V28.139l-.2,16.959,1.554.018.2-16.968v-13.8a2.8,2.8,0,0,1,2.791-2.8h33.337a2.8,2.8,0,0,1,2.791,2.8V61.9a2.8,2.8,0,0,1-2.791,2.8l-35.671.014v1.554l35.671-.014a4.353,4.353,0,0,0,4.346-4.352V14.352A4.353,4.353,0,0,0,172.842,10Z" transform="translate(-134.961 -10)" fill="#bf9f35"/>
          <path id="Path_266" data-name="Path 266" d="M278.754,401.349a.777.777,0,0,0,0,1.554h3.827a.777.777,0,1,0,0-1.554Z" transform="translate(-259.455 -350.664)" fill="#bf9f35"/>
          <path id="Path_267" data-name="Path 267" d="M209.15,95.756V57.614a2.075,2.075,0,0,0-2.072-2.072H179.9a2.075,2.075,0,0,0-2.072,2.072V95.756a2.074,2.074,0,0,0,2.072,2.072h27.178A2.074,2.074,0,0,0,209.15,95.756Zm-29.768,0V57.614a.518.518,0,0,1,.518-.518h27.178a.518.518,0,0,1,.518.518V95.756a.518.518,0,0,1-.518.518H179.9A.518.518,0,0,1,179.382,95.756Z" transform="translate(-172.276 -49.644)" fill="#bf9f35"/>
        </g>
        <path id="Path_268" data-name="Path 268" d="M65.961,229.178l-1.492-.383a3.671,3.671,0,0,1,.649-1.161l.978-1.179c.013-.016.027-.033.039-.051a8.267,8.267,0,0,0,.505-8.721l-.25-.461a4.622,4.622,0,0,1-.551-2l-.186-4.564a4.165,4.165,0,0,0-2.733-3.738,4.226,4.226,0,0,0-1.65-.259.777.777,0,0,0-.742.844l.337,3.885a18.285,18.285,0,0,1-.02,3.37.777.777,0,1,0,1.547.153,19.838,19.838,0,0,0,.022-3.657l-.256-2.95q.113.031.223.072A2.615,2.615,0,0,1,64.1,210.72l.186,4.564a6.187,6.187,0,0,0,.737,2.678l.25.461a6.721,6.721,0,0,1-.394,7.064l-.957,1.153a5.226,5.226,0,0,0-.961,1.766L56,226.618l1.708-2.924.02-.037a3.29,3.29,0,0,0,.236-2.428l-1.552-6.782a7.5,7.5,0,0,1,.469-4.686l5.135-9.75v-3.288l-6.521,12.335c-.007.014-.014.028-.021.042a9.062,9.062,0,0,0-.578,5.691l1.558,6.807c0,.016.008.033.013.049a1.741,1.741,0,0,1-.113,1.282L54.442,226.2l-1.737-.487-.016,0A1.352,1.352,0,0,0,51,227.078l.284,6.96a1.355,1.355,0,0,0,1.251,1.294l13.163.924q.053,0,.106,0a1.352,1.352,0,0,0,1.351-1.408l-.18-4.419A1.344,1.344,0,0,0,65.961,229.178ZM52.83,233.8l-.264-6.5,2.034.57.016,0,10.813,2.778.165,4.045Z" transform="translate(0 -162.54)" fill="#24e1b5"/>
        <path id="Path_269" data-name="Path 269" d="M74.776,449.938a1.857,1.857,0,0,0,.612,1.307,1.884,1.884,0,0,0,1.275.493c.026,0,.053,0,.08,0a1.887,1.887,0,0,0,1.813-1.953,1.857,1.857,0,0,0-.611-1.307,1.894,1.894,0,0,0-3.168,1.461Zm1.877-.4a.341.341,0,0,1,.245.088.315.315,0,0,1,.1.22.331.331,0,0,1-.324.337.339.339,0,0,1-.245-.088.315.315,0,0,1-.1-.22A.331.331,0,0,1,76.652,449.538Z" transform="translate(-20.696 -381.259)" fill="#1ae5be"/>
      </g>
    </g>
  </g>
</svg>
