<svg xmlns="http://www.w3.org/2000/svg" width="80" height="80" viewBox="0 0 80 80">
  <g id="Group_1788" data-name="Group 1788" transform="translate(-1204 -7385)">
    <g id="Ellipse_22" data-name="Ellipse 22" transform="translate(1204 7385)" fill="#fff" stroke="#bf9f35" stroke-width="1">
      <circle cx="40" cy="40" r="40" stroke="none"/>
      <circle cx="40" cy="40" r="39.5" fill="none"/>
    </g>
    <g id="web_1_" data-name="web (1)" transform="translate(1213.227 7377.747)">
      <path id="Path_482" data-name="Path 482" d="M18.533,64.649V35.839A1.841,1.841,0,0,1,20.376,34H17.843A1.841,1.841,0,0,0,16,35.839v28.81a1.841,1.841,0,0,0,1.843,1.839h2.533a1.841,1.841,0,0,1-1.843-1.839Z" transform="translate(-5.493 -5.493)" fill="#d4e1f4"/>
      <path id="Path_483" data-name="Path 483" d="M49.2,28H12.349A2.35,2.35,0,0,0,10,30.346v28.81A2.35,2.35,0,0,0,12.349,61.5l31.156-.012V60.476l-31.156.012a1.336,1.336,0,0,1-1.336-1.333V36.528h39.52V59.156a1.737,1.737,0,0,1-1.479,1.624v1.013a2.742,2.742,0,0,0,2.492-2.637V30.346A2.35,2.35,0,0,0,49.2,28ZM11.013,35.515V30.346a1.336,1.336,0,0,1,1.336-1.333H49.2a1.336,1.336,0,0,1,1.336,1.333v5.169Z" fill="#bf9f35"/>
      <path id="Path_484" data-name="Path 484" d="M39.434,54.622a1.952,1.952,0,1,0,1.954,1.952A1.952,1.952,0,0,0,39.434,54.622Zm0,2.89a.939.939,0,1,1,.941-.939A.939.939,0,0,1,39.434,57.512Z" transform="translate(-25.163 -24.374)" fill="#bf9f35"/>
      <path id="Path_485" data-name="Path 485" d="M101.149,54.622a1.952,1.952,0,1,0,1.954,1.952A1.952,1.952,0,0,0,101.149,54.622Zm0,2.89a.939.939,0,1,1,.941-.939A.939.939,0,0,1,101.149,57.512Z" transform="translate(-81.667 -24.374)" fill="#bf9f35"/>
      <path id="Path_486" data-name="Path 486" d="M161.72,54.622a1.952,1.952,0,1,0,1.954,1.952A1.952,1.952,0,0,0,161.72,54.622Zm0,2.89a.939.939,0,1,1,.941-.939A.939.939,0,0,1,161.72,57.512Z" transform="translate(-137.123 -24.374)" fill="#bf9f35"/>
      <path id="Path_487" data-name="Path 487" d="M284.249,70.6h-16.6a.507.507,0,1,0,0,1.013h16.6a.507.507,0,1,0,0-1.013Z" transform="translate(-235.429 -39.003)" fill="#bf9f35"/>
      <g id="Group_189" data-name="Group 189" transform="translate(12.871 38.6)">
        <path id="Path_488" data-name="Path 488" d="M220.533,172.171a.773.773,0,0,0-1.087-.111l-.993.81-1.742-2.133a9.887,9.887,0,1,0-.786.64l1.743,2.134-.992.809a.772.772,0,0,0-.11,1.087l4.147,5.078a2.56,2.56,0,1,0,3.967-3.236ZM203.2,169a8.855,8.855,0,1,1,12.482,1.285A8.855,8.855,0,0,1,203.2,169Zm21.035,10.031a1.531,1.531,0,0,1-.56,1.042,1.553,1.553,0,0,1-2.181-.226l-3.994-4.891L219.9,173l3.995,4.892A1.544,1.544,0,0,1,224.239,179.027Z" transform="translate(-186.994 -153.523)" fill="#24e1b5"/>
        <path id="Path_489" data-name="Path 489" d="M94.5,172.97a.507.507,0,0,0-.507-.507h-10a.507.507,0,0,0,0,1.013h10A.507.507,0,0,0,94.5,172.97Z" transform="translate(-80.147 -170.864)" fill="#24e1b5"/>
        <path id="Path_490" data-name="Path 490" d="M44.507,173.476h1.305a.507.507,0,0,0,0-1.013H44.507a.507.507,0,0,0,0,1.013Z" transform="translate(-44 -170.864)" fill="#24e1b5"/>
        <path id="Path_491" data-name="Path 491" d="M44.507,297.138h10.8a.507.507,0,1,0,0-1.013h-10.8a.507.507,0,1,0,0,1.013Z" transform="translate(-44 -284.083)" fill="#24e1b5"/>
        <path id="Path_492" data-name="Path 492" d="M57.169,350.711H44.507a.507.507,0,1,0,0,1.013H57.169a.507.507,0,1,0,0-1.013Z" transform="translate(-44 -334.059)" fill="#24e1b5"/>
        <path id="Path_493" data-name="Path 493" d="M411.174,165.824h3.8a.507.507,0,1,0,0-1.013h-3.8a.507.507,0,0,0,0,1.013Z" transform="translate(-379.704 -163.858)" fill="#24e1b5"/>
        <path id="Path_494" data-name="Path 494" d="M441.523,232.42h-1.349a.507.507,0,1,0,0,1.013h1.349a.507.507,0,1,0,0-1.013Z" transform="translate(-406.255 -225.758)" fill="#24e1b5"/>
        <path id="Path_495" data-name="Path 495" d="M444.269,296.125h-1.1a.507.507,0,1,0,0,1.013h1.1a.507.507,0,1,0,0-1.013Z" transform="translate(-409.002 -284.083)" fill="#24e1b5"/>
        <path id="Path_496" data-name="Path 496" d="M435.114,350.711h-1.94a.507.507,0,0,0,0,1.013h1.94a.507.507,0,0,0,0-1.013Z" transform="translate(-399.846 -334.059)" fill="#24e1b5"/>
        <path id="Path_497" data-name="Path 497" d="M349.712,276.084V271.4a.676.676,0,0,0-.676-.676h-2.019a.676.676,0,0,0-.676.676v4.687a.676.676,0,0,0,.676.676h2.019A.676.676,0,0,0,349.712,276.084Zm-1.013-.338h-1.343v-4.012H348.7Z" transform="translate(-320.811 -260.824)" fill="#24e1b5"/>
        <path id="Path_498" data-name="Path 498" d="M300.514,251.088H298.5a.676.676,0,0,0-.676.676v6.345a.676.676,0,0,0,.676.676h2.019a.676.676,0,0,0,.676-.676v-6.345A.676.676,0,0,0,300.514,251.088Zm-.338,6.683h-1.343V252.1h1.343Z" transform="translate(-276.386 -242.849)" fill="#24e1b5"/>
        <path id="Path_499" data-name="Path 499" d="M251.994,234.952h-2.018a.676.676,0,0,0-.676.676v7.708a.676.676,0,0,0,.676.676h2.018a.676.676,0,0,0,.676-.676v-7.708A.676.676,0,0,0,251.994,234.952ZM251.656,243h-1.343v-7.032h1.343Z" transform="translate(-231.963 -228.076)" fill="#24e1b5"/>
        <path id="Path_500" data-name="Path 500" d="M269.9,185.326h.016a.507.507,0,0,0,.506-.491l.024-.775,3.094,2.832.06.031a.676.676,0,0,0,.307.073h4.054a.507.507,0,1,0,0-1.013h-3.913l-2.673-2.446.534-.02a.507.507,0,1,0-.037-1.013l-1.755.064a.635.635,0,0,0-.656.565l-.052,1.671A.507.507,0,0,0,269.9,185.326Z" transform="translate(-250.375 -180.057)" fill="#24e1b5"/>
        <path id="Path_501" data-name="Path 501" d="M91.459,232.42H83.988a.507.507,0,1,0,0,1.013h7.471a.507.507,0,1,0,0-1.013Z" transform="translate(-80.147 -225.758)" fill="#24e1b5"/>
        <path id="Path_502" data-name="Path 502" d="M44.507,233.433h1.305a.507.507,0,1,0,0-1.013H44.507a.507.507,0,1,0,0,1.013Z" transform="translate(-44 -225.758)" fill="#24e1b5"/>
      </g>
    </g>
  </g>
</svg>
