<svg xmlns="http://www.w3.org/2000/svg" width="120" height="120" viewBox="0 0 120 120">
  <g id="Group_4888" data-name="Group 4888" transform="translate(-1168 -1869)">
    <g id="Ellipse_10" data-name="Ellipse 10" transform="translate(1168 1869)" fill="#fff" stroke="#bf9f35" stroke-width="1">
      <circle cx="60" cy="60" r="60" stroke="none"/>
      <circle cx="60" cy="60" r="59.5" fill="none"/>
    </g>
    <g id="Group_47" data-name="Group 47" transform="translate(-2 -97)">
      <rect id="Rectangle_16" data-name="Rectangle 16" width="80" height="80" transform="translate(1190 1986)" fill="none"/>
      <g id="education" transform="translate(1139.656 1979.29)">
        <path id="Path_286" data-name="Path 286" d="M113.616,306.335V281.191a2.329,2.329,0,0,1,2.327-2.331h-4.426a2.329,2.329,0,0,0-2.327,2.331v25.143a2.328,2.328,0,0,0,2.327,2.33h4.426A2.328,2.328,0,0,1,113.616,306.335Z" transform="translate(-40.508 -228.778)" fill="#d4e1f4"/>
        <g id="Group_46" data-name="Group 46" transform="translate(72.115 54.281)">
          <path id="Path_287" data-name="Path 287" d="M211.667,307.321h-2.344a.885.885,0,0,0,0,1.771h2.344a.885.885,0,1,0,0-1.771Z" transform="translate(-197.227 -307.321)" fill="#bf9f35"/>
          <path id="Path_288" data-name="Path 288" d="M133.343,309.092h7.988a.885.885,0,0,0,0-1.771h-7.988a.885.885,0,1,0,0,1.771Z" transform="translate(-132.458 -307.321)" fill="#bf9f35"/>
          <path id="Path_289" data-name="Path 289" d="M178.959,350.233h-8.005a.885.885,0,0,0,0,1.771h8.005a.885.885,0,1,0,0-1.771Z" transform="translate(-164.519 -343.902)" fill="#bf9f35"/>
          <path id="Path_290" data-name="Path 290" d="M133.343,352h2.326a.885.885,0,1,0,0-1.771h-2.326a.885.885,0,0,0,0,1.771Z" transform="translate(-132.458 -343.902)" fill="#bf9f35"/>
          <path id="Path_291" data-name="Path 291" d="M186.843,393.144H180.2a.885.885,0,1,0,0,1.771h6.641a.885.885,0,1,0,0-1.771Z" transform="translate(-172.403 -380.481)" fill="#bf9f35"/>
          <path id="Path_292" data-name="Path 292" d="M133.343,394.915h3.792a.885.885,0,1,0,0-1.771h-3.792a.885.885,0,1,0,0,1.771Z" transform="translate(-132.458 -380.481)" fill="#bf9f35"/>
          <path id="Path_293" data-name="Path 293" d="M209.484,436.056h-2.722a.885.885,0,1,0,0,1.771h2.722a.885.885,0,1,0,0-1.771Z" transform="translate(-195.044 -417.062)" fill="#bf9f35"/>
          <path id="Path_294" data-name="Path 294" d="M141.02,436.056h-7.677a.885.885,0,1,0,0,1.771h7.677a.885.885,0,1,0,0-1.771Z" transform="translate(-132.458 -417.062)" fill="#bf9f35"/>
          <path id="Path_295" data-name="Path 295" d="M337.777,307.321h-7.809a.885.885,0,0,0,0,1.771h7.809a.885.885,0,1,0,0-1.771Z" transform="translate(-300.072 -307.321)" fill="#bf9f35"/>
          <path id="Path_296" data-name="Path 296" d="M291.028,309.092h2.59a.885.885,0,0,0,0-1.771h-2.59a.885.885,0,0,0,0,1.771Z" transform="translate(-266.877 -307.321)" fill="#bf9f35"/>
          <path id="Path_297" data-name="Path 297" d="M362.769,350.233h-3.483a.885.885,0,0,0,0,1.771h3.483a.885.885,0,0,0,0-1.771Z" transform="translate(-325.063 -343.902)" fill="#bf9f35"/>
          <path id="Path_298" data-name="Path 298" d="M291.028,352h6.777a.885.885,0,0,0,0-1.771h-6.777a.885.885,0,0,0,0,1.771Z" transform="translate(-266.877 -343.902)" fill="#bf9f35"/>
          <path id="Path_299" data-name="Path 299" d="M364.43,393.144h-3.2a.885.885,0,1,0,0,1.771h3.2a.885.885,0,1,0,0-1.771Z" transform="translate(-326.725 -380.481)" fill="#bf9f35"/>
          <path id="Path_300" data-name="Path 300" d="M291.028,394.915h7.208a.885.885,0,1,0,0-1.771h-7.208a.885.885,0,0,0,0,1.771Z" transform="translate(-266.877 -380.481)" fill="#bf9f35"/>
          <path id="Path_301" data-name="Path 301" d="M337.771,436.056h-7.81a.885.885,0,0,0,0,1.771h7.81a.885.885,0,1,0,0-1.771Z" transform="translate(-300.066 -417.062)" fill="#bf9f35"/>
          <path id="Path_302" data-name="Path 302" d="M293.471,436.056h-2.443a.885.885,0,0,0,0,1.771h2.443a.885.885,0,0,0,0-1.771Z" transform="translate(-266.877 -417.062)" fill="#bf9f35"/>
        </g>
        <path id="Path_303" data-name="Path 303" d="M110.324,18.579a28.317,28.317,0,0,0-5.651-4.253,28.666,28.666,0,0,0-43,24.9A27.6,27.6,0,0,0,68,57.238l1.367-1.125a25.871,25.871,0,0,1-5.924-16.886,27.059,27.059,0,0,1,.59-5.622l1.411-.274a3.088,3.088,0,0,1,3.27,1.484,6.547,6.547,0,0,0,1.172,1.481l2.145,2.024a4.9,4.9,0,0,0,2.065,1.159l.25.068a2.689,2.689,0,0,1,1.873,1.871l1.15,4.159a5.722,5.722,0,0,0,.965,1.948l2.354,3.1,1.409-1.072-2.354-3.094a3.956,3.956,0,0,1-.668-1.348l-1.15-4.159a4.468,4.468,0,0,0-3.113-3.107l-.25-.068a3.128,3.128,0,0,1-1.316-.739L71.1,35.008a4.773,4.773,0,0,1-.856-1.08A4.859,4.859,0,0,0,65.1,31.594l-.593.118A27,27,0,0,1,86.958,12.467L90.164,17.1a3.127,3.127,0,0,1-.093,3.7l-.949,1.235a2.092,2.092,0,0,1-1.916.8l-1.077-.138a3.984,3.984,0,0,0-3.947,1.941,2.113,2.113,0,0,1-2.091,1.03L77.6,25.348a4.117,4.117,0,0,0-3.95,1.789,3.682,3.682,0,0,0-.062,4.028l1.644,2.6a3.43,3.43,0,0,0,4.507,1.188l1.691-.908a3.018,3.018,0,0,1,2.97.072l3.21,1.931a.886.886,0,0,0,.456.127,4.492,4.492,0,0,1,3.644,1.876l1.615,2.257c.111.156.231.309.355.456l2.055,2.423a.965.965,0,0,1-.147,1.387l-3.113,2.4a5.1,5.1,0,0,0-1.773,2.556l-.58,1.886,1.693.52.58-1.886a3.337,3.337,0,0,1,1.16-1.673l3.113-2.4a2.735,2.735,0,0,0,.417-3.935l-2.054-2.423c-.093-.11-.183-.225-.266-.341l-1.616-2.257a6.268,6.268,0,0,0-4.83-2.611L85.314,32.6a4.8,4.8,0,0,0-4.72-.115l-1.691.908a1.654,1.654,0,0,1-2.172-.574l-1.644-2.6a1.911,1.911,0,0,1,.032-2.091A2.355,2.355,0,0,1,77.379,27.1l2.487.316a3.88,3.88,0,0,0,3.842-1.89,2.217,2.217,0,0,1,2.2-1.08l1.077.138a3.866,3.866,0,0,0,3.544-1.475l.95-1.235a4.892,4.892,0,0,0,.145-5.783l-2.633-3.807q.674-.034,1.356-.034a26.841,26.841,0,0,1,13.447,3.606q1.113.637,2.157,1.378l-3.259,5.382-.012.02a3.089,3.089,0,0,0,.357,3.558,3.9,3.9,0,0,0,2.462,1.307l.39.048a1.88,1.88,0,0,1,1.568,1.323,1.813,1.813,0,0,1-.531,1.877l-3.861,3.419A3.782,3.782,0,0,0,101.786,37v.907a3.288,3.288,0,0,0,1.507,2.772,1.686,1.686,0,0,1,.765,1.255l.09.906a3.04,3.04,0,0,0,3.033,2.75h2.26a4.9,4.9,0,0,0,4.49-2.939l.136-.31a1.7,1.7,0,0,1,1.485-1.022l.531-.024c.087,0,.175-.01.262-.019l.821-.083a28.707,28.707,0,0,1-3.528,11.7l1.54.873a29.974,29.974,0,0,0,3.838-14.547,28.868,28.868,0,0,0-8.693-20.648Zm6.918,20.83-1.074.108q-.083.008-.165.012l-.531.024a3.456,3.456,0,0,0-3.026,2.08l-.136.31a3.134,3.134,0,0,1-2.869,1.879h-2.26a1.275,1.275,0,0,1-1.271-1.155l-.09-.906a3.448,3.448,0,0,0-1.565-2.566,1.524,1.524,0,0,1-.7-1.285V37a2.01,2.01,0,0,1,.676-1.5l3.861-3.418a3.588,3.588,0,0,0,1.052-3.715A3.652,3.652,0,0,0,106.1,25.8l-.39-.048a2.128,2.128,0,0,1-1.344-.714,1.317,1.317,0,0,1-.157-1.507l3.156-5.21q.9.729,1.726,1.533a27.1,27.1,0,0,1,8.154,19.377c0,.061,0,.122,0,.182Z" fill="#24e1b5"/>
        <path id="Path_304" data-name="Path 304" d="M147.471,272.865H129.877a3.993,3.993,0,0,0-3.116,1.5,3.993,3.993,0,0,0-3.116-1.5H106.4a3.218,3.218,0,0,0-3.212,3.216v25.142a3.218,3.218,0,0,0,3.212,3.217h17.928l1.854,1.808a1.238,1.238,0,0,0,1.739,0l1.854-1.808h17.7a3.218,3.218,0,0,0,3.212-3.216V276.082A3.218,3.218,0,0,0,147.471,272.865ZM125.41,303.022a1.239,1.239,0,0,0-.869-.354H106.4a1.445,1.445,0,0,1-1.441-1.446V276.08a1.445,1.445,0,0,1,1.441-1.446h17.248a2.234,2.234,0,0,1,2.228,2.239l.268,26.863Zm23.5-1.8a1.445,1.445,0,0,1-1.441,1.446H129.559a1.24,1.24,0,0,0-.869.354l-.776.757-.269-26.912h0a2.232,2.232,0,0,1,2.229-2.23h17.594a1.445,1.445,0,0,1,1.441,1.446Z" transform="translate(-35.39 -223.668)" fill="#bf9f35"/>
      </g>
    </g>
  </g>
</svg>
