<svg xmlns="http://www.w3.org/2000/svg" width="25.038" height="26" viewBox="0 0 25.038 26">
  <g id="Group_118" data-name="Group 118" transform="translate(0.819 0.861)">
    <ellipse id="Ellipse_19" data-name="Ellipse 19" cx="12.019" cy="12.5" rx="12.019" ry="12.5" transform="translate(-0.319 -0.361)" fill="none" stroke="#bf9f35" stroke-width="1"/>
    <path id="Path_333" data-name="Path 333" d="M10.44,3.137c-2.993,0-5.835-.248-6.92,2.347-.448,1.072-.383,2.464-.383,4.458A13.265,13.265,0,0,0,3.52,14.4C4.6,17,7.468,16.747,10.438,16.747c2.866,0,5.821.278,6.92-2.348.449-1.083.383-2.454.383-4.457,0-2.658.157-4.375-1.226-5.663-1.4-1.305-3.3-1.142-6.078-1.142ZM9.786,4.363c6.243-.009,7.037-.656,6.6,8.326-.156,3.177-2.752,2.828-5.944,2.828-5.819,0-5.987-.155-5.987-5.579,0-5.487.462-5.573,5.331-5.577Zm4.553,1.13a.818.818,0,1,0,.876.816A.848.848,0,0,0,14.339,5.493Zm-3.9.954A3.629,3.629,0,0,0,6.69,9.942a3.629,3.629,0,0,0,3.75,3.494,3.628,3.628,0,0,0,3.75-3.494,3.629,3.629,0,0,0-3.75-3.495Zm0,1.226a2.273,2.273,0,1,1,0,4.537A2.273,2.273,0,1,1,10.44,7.674Z" transform="translate(1.26 2.196)" fill="#bf9f35"/>
  </g>
</svg>
