<svg xmlns="http://www.w3.org/2000/svg" width="80" height="80" viewBox="0 0 80 80">
  <g id="Group_17888" data-name="Group 17888" transform="translate(-1204 -7385)">
    <g id="Ellipse_22" data-name="Ellipse 22" transform="translate(1204 7385)" fill="#fff" stroke="#bf9f35" stroke-width="1">
      <circle cx="40" cy="40" r="40" stroke="none"/>
      <circle cx="40" cy="40" r="39.5" fill="none"/>
    </g>
    <g id="laptop_1_" data-name="laptop (1)" transform="translate(1212.102 7329.876)">
      <path id="Path_454" data-name="Path 454" d="M89.1,144.918V126.379a.388.388,0,0,1,.389-.388H86.759a.388.388,0,0,0-.389.388v18.539a.388.388,0,0,0,.389.388h2.733a.388.388,0,0,1-.389-.388Z" transform="translate(-69.899 -42.711)" fill="#d4e1f4"/>
      <path id="Path_455" data-name="Path 455" d="M81.306,140.4h30.521a.936.936,0,0,0,.936-.935V120.926a.936.936,0,0,0-.936-.935H81.306a.936.936,0,0,0-.936.935v18.539A.936.936,0,0,0,81.306,140.4Zm.157-19.315H111.67v18.222H81.463Z" transform="translate(-64.446 -37.257)" fill="#bf9f35"/>
      <path id="Path_456" data-name="Path 456" d="M51.9,105.429V81.7A2.707,2.707,0,0,0,49.193,79H15.048a2.707,2.707,0,0,0-2.707,2.7v23.686a2.93,2.93,0,1,0,.11,5.859H51.393a2.93,2.93,0,0,0,.507-5.817ZM15.048,80.093H49.193A1.613,1.613,0,0,1,50.808,81.7v23.683H38.148a1.627,1.627,0,0,0-1.627,1.624.533.533,0,0,1-.534.531H27.345a.533.533,0,0,1-.534-.531,1.627,1.627,0,0,0-1.627-1.624H13.434V81.7A1.613,1.613,0,0,1,15.048,80.093ZM52.7,109.612a1.834,1.834,0,0,1-1.306.541H12.451a1.838,1.838,0,1,1,0-3.675H25.185a.533.533,0,0,1,.534.531,1.627,1.627,0,0,0,1.627,1.624h8.642a1.627,1.627,0,0,0,1.627-1.624.533.533,0,0,1,.534-.531H51.393a1.843,1.843,0,0,1,1.844,1.836,1.822,1.822,0,0,1-.537,1.3Z" transform="translate(0)" fill="#bf9f35"/>
      <g id="Group_177" data-name="Group 177" transform="translate(20.681 86.824)">
        <path id="Path_457" data-name="Path 457" d="M155.13,174.785a3.989,3.989,0,0,0,.481-2.126c0-2.949-2.694-5.347-6.006-5.347a6.66,6.66,0,0,0-1.834.256v-.418a2.258,2.258,0,0,0-2.256-2.255H134.846a2.258,2.258,0,0,0-2.255,2.255v6.178a2.258,2.258,0,0,0,2.255,2.255h2.118v1.693a.547.547,0,0,0,.858.449l3.085-2.142h3.673a6.22,6.22,0,0,0,5.025,2.423,8.345,8.345,0,0,0,3.242-.861,5.288,5.288,0,0,0,2.585.759.765.765,0,0,0,.743-1.16A13.265,13.265,0,0,1,155.13,174.785Zm-14.394-.295a.546.546,0,0,0-.312.1l-2.367,1.644v-1.195a.547.547,0,0,0-.547-.547h-2.664a1.164,1.164,0,0,1-1.162-1.162V167.15a1.164,1.164,0,0,1,1.162-1.162h10.669a1.164,1.164,0,0,1,1.163,1.162v.842a5.29,5.29,0,0,0-3.079,4.667,4.8,4.8,0,0,0,.363,1.83Zm13.822,2.2a4.226,4.226,0,0,1-1.215-.52.926.926,0,0,0-.924-.031,7.263,7.263,0,0,1-2.813.777c-2.709,0-4.913-1.908-4.913-4.254s2.2-4.254,4.913-4.254,4.913,1.909,4.913,4.254a2.824,2.824,0,0,1-.406,1.7c-.142.227-.317.5.8,2.4Q154.732,176.731,154.558,176.688Z" transform="translate(-132.591 -164.895)" fill="#24e1b5"/>
        <path id="Path_458" data-name="Path 458" d="M298.135,212.918a2.015,2.015,0,0,0-2.043,2.015.547.547,0,1,0,1.093,0,.923.923,0,1,1,1.077.909.837.837,0,0,0-.7.826v.78a.547.547,0,1,0,1.093,0v-.575a2,2,0,0,0,1.468-1.969,2.028,2.028,0,0,0-1.986-1.986Z" transform="translate(-281.199 -208.543)" fill="#24e1b5"/>
        <circle id="Ellipse_23" data-name="Ellipse 23" cx="0.654" cy="0.654" r="0.654" transform="translate(16.276 10.012)" fill="#24e1b5"/>
        <path id="Path_459" data-name="Path 459" d="M171.86,195.7a.547.547,0,0,0-.547-.547h-5.38a.547.547,0,1,0,0,1.093h5.38A.547.547,0,0,0,171.86,195.7Z" transform="translate(-162.4 -192.394)" fill="#24e1b5"/>
        <path id="Path_460" data-name="Path 460" d="M247.305,195.7a.547.547,0,0,0-.547-.547h-.825a.547.547,0,0,0,0,1.093h.825A.547.547,0,0,0,247.305,195.7Z" transform="translate(-235.112 -192.394)" fill="#24e1b5"/>
        <path id="Path_461" data-name="Path 461" d="M166.759,225.15h-.825a.547.547,0,1,0,0,1.093h.825a.547.547,0,0,0,0-1.093Z" transform="translate(-162.4 -219.661)" fill="#24e1b5"/>
        <path id="Path_462" data-name="Path 462" d="M199.492,225.15h-3.558a.547.547,0,0,0,0,1.093h3.558a.547.547,0,0,0,0-1.093Z" transform="translate(-189.667 -219.661)" fill="#24e1b5"/>
      </g>
    </g>
  </g>
</svg>
