<svg xmlns="http://www.w3.org/2000/svg" width="120" height="120" viewBox="0 0 120 120">
  <g id="Group_48" data-name="Group 48" transform="translate(-1168 -1869)">
    <g id="Ellipse_10" data-name="Ellipse 10" transform="translate(1168 1869)" fill="#fff" stroke="#bf9f35" stroke-width="1">
      <circle cx="60" cy="60" r="60" stroke="none"/>
      <circle cx="60" cy="60" r="59.5" fill="none"/>
    </g>
    <g id="Group_47" data-name="Group 47" transform="translate(-2 -97)">
      <g id="laptop" transform="translate(1188.485 1975)">
        <path id="Path_233" data-name="Path 233" d="M135.366,77.972v-25.1a3.95,3.95,0,0,1,1.166-2.807,3.991,3.991,0,0,1,.876-.661,3.98,3.98,0,0,0-5.921,3.467v25.1a2.839,2.839,0,0,0,2.843,2.834h3.878A2.839,2.839,0,0,1,135.366,77.972Z" transform="translate(-106.204 -24.297)" fill="#d4e1f4"/>
        <path id="Path_234" data-name="Path 234" d="M227.844,50.708l-.039-20.874A2.838,2.838,0,0,1,230.648,27H226.77a2.838,2.838,0,0,0-2.843,2.834l.039,20.874a3.481,3.481,0,0,1-3.485,3.476l4.613-.078A3.479,3.479,0,0,0,227.844,50.708Z" transform="translate(-183.691 -5.224)" fill="#d4e1f4"/>
        <path id="Path_235" data-name="Path 235" d="M125.017,178.548h-3.7V180.1h3.472v25.812H81.921V180.1H86.98v-1.551H81.7a1.328,1.328,0,0,0-1.328,1.325v26.263a1.328,1.328,0,0,0,1.328,1.326h43.319a1.328,1.328,0,0,0,1.328-1.325V179.873a1.328,1.328,0,0,0-1.328-1.325Z" transform="translate(-61.695 -137.18)" fill="#bf9f35"/>
        <path id="Path_236" data-name="Path 236" d="M69.736,175.073V141.461a3.84,3.84,0,0,0-3.842-3.829H59.6v1.551h6.3a2.287,2.287,0,0,1,2.291,2.277V175.01H50.218a2.308,2.308,0,0,0-2.309,2.3.755.755,0,0,1-.757.751H34.885a.755.755,0,0,1-.758-.751,2.308,2.308,0,0,0-2.309-2.3H15.14V141.461a2.287,2.287,0,0,1,2.291-2.277h7.854v-1.551H17.431a3.84,3.84,0,0,0-3.842,3.829v33.553a4.152,4.152,0,1,0,.157,8.3H69.017a4.152,4.152,0,0,0,.72-8.243ZM70.873,181a2.607,2.607,0,0,1-1.857.768H13.745a2.6,2.6,0,0,1,0-5.2H31.819a.755.755,0,0,1,.758.751,2.308,2.308,0,0,0,2.309,2.3H47.152a2.308,2.308,0,0,0,2.309-2.3.755.755,0,0,1,.758-.751h18.8a2.613,2.613,0,0,1,2.617,2.6A2.578,2.578,0,0,1,70.873,181Z" transform="translate(0 -101.553)" fill="#bf9f35"/>
        <g id="Group_43" data-name="Group 43" transform="translate(24.509 21)">
          <path id="Path_237" data-name="Path 237" d="M157.7,21H144.064a3.622,3.622,0,0,0-3.533,2.834h-10.28a4.756,4.756,0,0,0-4.756,4.745v25.1a3.618,3.618,0,0,0,3.618,3.61h15.93a3.614,3.614,0,0,0,3.618-3.625l-.022-4.109,9.138-.155a3.619,3.619,0,0,0,3.611-3.613l-.071-21.174A3.618,3.618,0,0,0,157.7,21ZM140.485,45.484a2.709,2.709,0,0,1-2.611,2.7l-.106,0a2.709,2.709,0,0,1-2.7-2.7l-.056-16.919a4.72,4.72,0,0,0-1.244-3.176h6.684Zm6.025,9.641a2.056,2.056,0,0,1-1.467.609h-15.93a2.065,2.065,0,0,1-2.066-2.059V28.58a3.205,3.205,0,1,1,6.41-.013l0,1.236c-.022,0-.044,0-.067,0h-3.743a.776.776,0,0,0,0,1.551h3.742c.024,0,.048,0,.072,0l.019,5.584a.779.779,0,0,0-.09-.006h-3.742a.776.776,0,0,0,0,1.551h3.742a.781.781,0,0,0,.1-.006l.018,5.59a.774.774,0,0,0-.114-.009h-3.742a.776.776,0,0,0,0,1.551h3.742a.787.787,0,0,0,.122-.01,4.261,4.261,0,0,0,4.259,4.144l.14,0,9.173-.155.022,4.089a2.041,2.041,0,0,1-.6,1.458Zm11.261-7.28-16.66.282a4.228,4.228,0,0,0,.927-2.646L142,24.61a2.065,2.065,0,0,1,2.067-2.059H157.7a2.066,2.066,0,0,1,2.067,2.061l.071,21.174a2.065,2.065,0,0,1-2.067,2.059Z" transform="translate(-125.495 -21)" fill="#1ae5be"/>
          <path id="Path_238" data-name="Path 238" d="M307.084,63.173h-8.849a.776.776,0,0,0,0,1.551h8.849a.776.776,0,1,0,0-1.551Z" transform="translate(-275.227 -57.721)" fill="#1ae5be"/>
          <path id="Path_239" data-name="Path 239" d="M267.066,64.724h1.268a.776.776,0,0,0,0-1.551h-1.268a.776.776,0,0,0,0,1.551Z" transform="translate(-248.088 -57.721)" fill="#1ae5be"/>
          <path id="Path_240" data-name="Path 240" d="M193.557,254.416h-9a.776.776,0,0,0,0,1.551h9a.776.776,0,1,0,0-1.551Z" transform="translate(-176.246 -224.239)" fill="#1ae5be"/>
          <path id="Path_241" data-name="Path 241" d="M153.707,254.416h-1.285a.776.776,0,1,0,0,1.551h1.285a.776.776,0,0,0,0-1.551Z" transform="translate(-148.265 -224.239)" fill="#1ae5be"/>
          <path id="Path_242" data-name="Path 242" d="M360.2,187.218h-.963a.776.776,0,0,0,0,1.551h.963a.776.776,0,0,0,0-1.551Z" transform="translate(-328.341 -165.729)" fill="#1ae5be"/>
          <path id="Path_243" data-name="Path 243" d="M276.091,187.218h-9.025a.776.776,0,0,0,0,1.551h9.025a.776.776,0,0,0,0-1.551Z" transform="translate(-248.088 -165.729)" fill="#1ae5be"/>
          <path id="Path_244" data-name="Path 244" d="M312.195,147.332H304.1a.776.776,0,1,0,0,1.551h8.09a.776.776,0,0,0,0-1.551Z" transform="translate(-280.338 -130.999)" fill="#1ae5be"/>
          <path id="Path_245" data-name="Path 245" d="M267.066,148.883h1.943a.776.776,0,0,0,0-1.551h-1.943a.776.776,0,0,0,0,1.551Z" transform="translate(-248.088 -130.999)" fill="#1ae5be"/>
          <path id="Path_246" data-name="Path 246" d="M355.4,107.446h-1.675a.776.776,0,0,0,0,1.551H355.4a.776.776,0,0,0,0-1.551Z" transform="translate(-323.543 -96.27)" fill="#1ae5be"/>
          <path id="Path_247" data-name="Path 247" d="M267.066,109h8.342a.776.776,0,0,0,0-1.551h-8.342a.776.776,0,0,0,0,1.551Z" transform="translate(-248.088 -96.27)" fill="#1ae5be"/>
          <path id="Path_248" data-name="Path 248" d="M325.338,318.113h-8.462a.776.776,0,0,0,0,1.551h8.463a.776.776,0,1,0,0-1.551Z" transform="translate(-291.458 -279.701)" fill="#1ae5be"/>
          <path id="Path_249" data-name="Path 249" d="M287.474,319.664a.776.776,0,1,0,0-1.551h-1.181a.776.776,0,0,0,0,1.551Z" transform="translate(-264.83 -279.701)" fill="#1ae5be"/>
          <path id="Path_250" data-name="Path 250" d="M142.52,319.664H158.3a.776.776,0,1,0,0-1.551H142.52a.776.776,0,0,0,0,1.551Z" transform="translate(-139.643 -279.701)" fill="#1ae5be"/>
          <path id="Path_251" data-name="Path 251" d="M360.186,351.019H356.9a.776.776,0,0,0,0,1.551h3.288a.776.776,0,0,0,0-1.551Z" transform="translate(-326.306 -308.353)" fill="#1ae5be"/>
          <path id="Path_252" data-name="Path 252" d="M211.746,351.019H193.438a.776.776,0,1,0,0,1.551h18.309a.776.776,0,0,0,0-1.551Z" transform="translate(-183.978 -308.353)" fill="#1ae5be"/>
          <path id="Path_253" data-name="Path 253" d="M146.249,351.019H142.52a.776.776,0,1,0,0,1.551h3.729a.776.776,0,1,0,0-1.551Z" transform="translate(-139.643 -308.353)" fill="#1ae5be"/>
        </g>
      </g>
      <rect id="Rectangle_16" data-name="Rectangle 16" width="80" height="80" transform="translate(1190 1986)" fill="none"/>
    </g>
  </g>
</svg>
