<svg xmlns="http://www.w3.org/2000/svg" width="80" height="80" viewBox="0 0 80 80">
  <g id="Group_178" data-name="Group 178" transform="translate(-1204 -7385)">
    <g id="Ellipse_22" data-name="Ellipse 22" transform="translate(1204 7385)" fill="#fff" stroke="#bf9f35" stroke-width="1">
      <circle cx="40" cy="40" r="40" stroke="none"/>
      <circle cx="40" cy="40" r="39.5" fill="none"/>
    </g>
    <g id="conversation" transform="translate(1212.5 7397)">
      <path id="Path_446" data-name="Path 446" d="M107.886,151.7a3.915,3.915,0,0,0-.874-.1h-.5a3.907,3.907,0,0,0-3.907,3.907v3.282a3.907,3.907,0,0,0,3.907,3.907h.5a3.915,3.915,0,0,0,.874-.1,3.908,3.908,0,0,1-3.033-3.808v-3.282a3.908,3.908,0,0,1,3.032-3.808Z" transform="translate(-82.41 -130.968)" fill="#d4e1f4"/>
      <path id="Path_447" data-name="Path 447" d="M27.376,312.966a1.244,1.244,0,0,1-1.244,1.245H24.353a4.854,4.854,0,0,0-4.853,4.855v7.629h2.253v-7.629a4.854,4.854,0,0,1,4.854-4.855h1.778c.042,0,.083,0,.123-.006l-1.116-1.254Z" transform="translate(-5.55 -280.203)" fill="#d4e1f4"/>
      <g id="Group_176" data-name="Group 176" transform="translate(13.5 20.181)">
        <path id="Path_448" data-name="Path 448" d="M100.958,157.6h.5a4.363,4.363,0,0,0,4.358-4.358v-3.281a4.363,4.363,0,0,0-4.358-4.358h-.5a4.363,4.363,0,0,0-4.358,4.358v3.281A4.363,4.363,0,0,0,100.958,157.6ZM97.5,149.958a3.461,3.461,0,0,1,3.457-3.457h.5a3.461,3.461,0,0,1,3.457,3.457v3.281a3.461,3.461,0,0,1-3.457,3.457h-.5A3.461,3.461,0,0,1,97.5,153.24Z" transform="translate(-90.36 -145.6)" fill="#bf9f35"/>
        <path id="Path_449" data-name="Path 449" d="M29.9,308.212H28.143a.8.8,0,0,1-.794-.794.451.451,0,0,0-.884-.121l-.915.915H23.165l-.987-1.109a.451.451,0,0,0-.655-.019l-.016.016a.45.45,0,0,0-.132.318.8.8,0,0,1-.794.794H18.8a5.31,5.31,0,0,0-5.3,5.306v7.629a.45.45,0,0,0,.451.45h20.8a.45.45,0,0,0,.451-.45v-7.629a5.31,5.31,0,0,0-5.3-5.306Zm-4.79.9-.4,1.18H24l-.4-1.18Zm.523,7.88-1.3,1.515L23.073,317l1.135-5.807h.412Zm8.67,3.7H14.4v-7.178a4.408,4.408,0,0,1,4.4-4.4h1.778a1.7,1.7,0,0,0,1.45-.819l.534.6.77,2.063-1.189,6.081a.451.451,0,0,0,.1.375l1.738,2.08a.451.451,0,0,0,.343.162h0a.45.45,0,0,0,.342-.158l1.781-2.081a.45.45,0,0,0,.1-.37l-1.084-6.24.66-1.9.583-.583a1.7,1.7,0,0,0,1.379.788H29.9a4.408,4.408,0,0,1,4.4,4.4Z" transform="translate(-13.5 -294.837)" fill="#bf9f35"/>
        <path id="Path_450" data-name="Path 450" d="M210.52,393.378h-2.67a.451.451,0,1,0,0,.9h2.67a.451.451,0,0,0,0-.9Z" transform="translate(-192.841 -374.774)" fill="#bf9f35"/>
      </g>
      <path id="Path_451" data-name="Path 451" d="M328.746,60.547l-4.976-2.874a.6.6,0,0,0-.9.52v5.748a.6.6,0,0,0,.9.52l.854-.493a.451.451,0,0,0-.451-.78l-.4.233V58.713l4.075,2.354-.266.154a.45.45,0,1,0,.451.78l.717-.414a.6.6,0,0,0,0-1.04Z" transform="translate(-286.14 -44.019)" fill="#24e1b5"/>
      <path id="Path_452" data-name="Path 452" d="M356.323,115.133l-.751.434a.45.45,0,1,0,.451.78l.751-.434a.45.45,0,0,0-.451-.78Z" transform="translate(-316.179 -97.184)" fill="#24e1b5"/>
      <path id="Path_453" data-name="Path 453" d="M241.956,10H227.039a2.843,2.843,0,0,0-2.839,2.841v8.64a2.843,2.843,0,0,0,2.84,2.841h3.275V27a.451.451,0,0,0,.708.37l4.393-3.052h6.541a2.843,2.843,0,0,0,2.84-2.841v-8.64A2.843,2.843,0,0,0,241.956,10Zm1.939,11.481a1.941,1.941,0,0,1-1.939,1.94h-6.682a.45.45,0,0,0-.257.081l-3.8,2.641V23.871a.451.451,0,0,0-.451-.451h-3.725a1.941,1.941,0,0,1-1.939-1.94v-8.64a1.941,1.941,0,0,1,1.939-1.94h14.917a1.941,1.941,0,0,1,1.939,1.94Z" transform="translate(-194.88)" fill="#24e1b5"/>
    </g>
  </g>
</svg>
