<svg xmlns="http://www.w3.org/2000/svg" width="25.038" height="26" viewBox="0 0 25.038 26">
  <g id="Group_117" data-name="Group 117" transform="translate(0.235 0.361)">
    <ellipse id="Ellipse_20" data-name="Ellipse 20" cx="12.019" cy="12.5" rx="12.019" ry="12.5" transform="translate(0.265 0.138)" fill="none" stroke="#bf9f35" stroke-width="1"/>
    <path id="youtube_1_" data-name="youtube (1)" d="M11.222,67.393H2.942A2.942,2.942,0,0,0,0,70.335v4.139a2.942,2.942,0,0,0,2.942,2.942h8.28a2.942,2.942,0,0,0,2.942-2.942V70.335A2.942,2.942,0,0,0,11.222,67.393ZM9.233,72.606,5.36,74.453a.155.155,0,0,1-.222-.14V70.5a.155.155,0,0,1,.226-.139l3.873,1.963A.155.155,0,0,1,9.233,72.606Z" transform="translate(5.202 -59.765)" fill="#bf9f35"/>
  </g>
</svg>
