<svg xmlns="http://www.w3.org/2000/svg" xmlns:xlink="http://www.w3.org/1999/xlink" width="132" height="132" viewBox="0 0 132 132">
  <defs>
    <filter id="Ellipse_16" x="0" y="0" width="132" height="132" filterUnits="userSpaceOnUse">
      <feOffset dx="5" dy="10" input="SourceAlpha"/>
      <feGaussianBlur stdDeviation="15" result="blur"/>
      <feFlood flood-color="#1c1b19" flood-opacity="0.051"/>
      <feComposite operator="in" in2="blur"/>
      <feComposite in="SourceGraphic"/>
    </filter>
  </defs>
  <g id="Group_82" data-name="Group 82" transform="translate(40.194 35)">
    <g transform="matrix(1, 0, 0, 1, -40.19, -35)" filter="url(#Ellipse_16)">
      <g id="Ellipse_16-2" data-name="Ellipse 16" transform="translate(40 35)" fill="#fff" stroke="#bf9f35" stroke-width="1">
        <circle cx="21" cy="21" r="21" stroke="none"/>
        <circle cx="21" cy="21" r="20.5" fill="none"/>
      </g>
    </g>
    <g id="Group_81" data-name="Group 81" transform="translate(10.806 11)">
      <rect id="Rectangle_22" data-name="Rectangle 22" width="20" height="20" fill="none"/>
      <path id="share" d="M20.822,10.449a3.16,3.16,0,0,0-2.436,1.146L14.606,9.448a3.159,3.159,0,0,0,0-2.115l3.781-2.147a3.162,3.162,0,1,0-.548-.963L14.058,6.371a3.166,3.166,0,1,0,0,4.04l3.781,2.147a3.165,3.165,0,1,0,2.984-2.109Zm0-9.341a2.058,2.058,0,1,1-2.058,2.058A2.06,2.06,0,0,1,20.822,1.108Zm-9.2,9.341A2.058,2.058,0,1,1,13.68,8.391,2.061,2.061,0,0,1,11.622,10.449Zm9.2,5.225a2.058,2.058,0,1,1,2.058-2.058A2.06,2.06,0,0,1,20.822,15.673Z" transform="translate(-6.222 1.609)" fill="#bf9f35"/>
    </g>
  </g>
</svg>
