<svg xmlns="http://www.w3.org/2000/svg" width="15.214" height="15.213" viewBox="0 0 15.214 15.213">
  <path id="Path_305" data-name="Path 305" d="M15191.021,8455.618a3.6,3.6,0,1,1,3.595,3.595A3.6,3.6,0,0,1,15191.021,8455.618Zm1.188,0a2.407,2.407,0,1,0,2.407-2.407A2.409,2.409,0,0,0,15192.208,8455.618Zm-6.834,3.595a2.38,2.38,0,0,1-2.377-2.377v-9.271a2.379,2.379,0,0,1,2.377-2.376h.743v-.595a.594.594,0,1,1,1.188,0v.595h2.675v-.595a.594.594,0,1,1,1.188,0v.595h2.7v-.595a.594.594,0,1,1,1.188,0v.595h.773a2.378,2.378,0,0,1,2.377,2.376v3.388a.594.594,0,0,1-1.188,0v-3.388a1.191,1.191,0,0,0-1.188-1.188h-.773v.594a.594.594,0,1,1-1.187,0v-.594h-2.7v.594a.594.594,0,1,1-1.188,0v-.594h-2.675v.594a.594.594,0,1,1-1.188,0v-.594h-.743a1.19,1.19,0,0,0-1.188,1.188v9.271a1.189,1.189,0,0,0,1.188,1.188h4.546a.594.594,0,1,1,0,1.188Zm9.241-3a.6.6,0,0,1-.594-.595V8454.4a.594.594,0,0,1,1.188,0v.624h.267a.595.595,0,0,1,0,1.189Zm-5.8-.8a.569.569,0,1,1,.561.672A.624.624,0,0,1,15188.813,8455.41Zm-2.684,0a.569.569,0,1,1,.559.672A.624.624,0,0,1,15186.13,8455.41Zm2.684-2.573a.56.56,0,1,1,.561.56A.56.56,0,0,1,15188.813,8452.837Zm-2.684,0a.56.56,0,1,1,.559.56A.559.559,0,0,1,15186.13,8452.837Zm7.83-2.572a.569.569,0,1,1,.56.67A.623.623,0,0,1,15193.96,8450.265Zm-2.685,0a.568.568,0,1,1,.56.67A.623.623,0,0,1,15191.275,8450.265Zm-2.462,0a.569.569,0,1,1,.561.67A.623.623,0,0,1,15188.813,8450.265Zm-2.684,0a.569.569,0,1,1,.559.67A.623.623,0,0,1,15186.13,8450.265Z" transform="translate(-15182.997 -8444)" fill="#bf9f35"/>
</svg>
