<svg xmlns="http://www.w3.org/2000/svg" width="40.587" height="35.788" viewBox="0 0 40.587 35.788">
  <path id="Path_308" data-name="Path 308" d="M15208.113,8479.788a1.971,1.971,0,0,1-1.965-1.964v-10.053a40.559,40.559,0,0,1,1.277-11.492,17.468,17.468,0,0,1,4.779-7.529,23.7,23.7,0,0,1,7.041-4.551,1.955,1.955,0,0,1,2.553.949l1.605,3.338a1.954,1.954,0,0,1-.982,2.62,12.4,12.4,0,0,0-5.336,3.929,13.806,13.806,0,0,0-2.293,7.957h6.188a1.972,1.972,0,0,1,1.967,1.965v12.867a1.972,1.972,0,0,1-1.967,1.964Zm-23.148,0a1.971,1.971,0,0,1-1.965-1.964v-10.053a41.015,41.015,0,0,1,1.311-11.523,17.1,17.1,0,0,1,4.746-7.5,22.548,22.548,0,0,1,7.074-4.584,1.955,1.955,0,0,1,2.553.949l1.6,3.371a1.952,1.952,0,0,1-.98,2.62,12.424,12.424,0,0,0-5.338,3.929,13.774,13.774,0,0,0-2.291,7.957h6.152a1.97,1.97,0,0,1,1.967,1.963v12.869a1.971,1.971,0,0,1-1.967,1.964Z" transform="translate(-15183 -8444)" fill="#f1f1f1"/>
</svg>
