<svg xmlns="http://www.w3.org/2000/svg" width="114.89" height="93.369" viewBox="0 0 114.89 93.369">
  <path id="Path_503" data-name="Path 503" d="M139.993,45.081a47.029,47.029,0,0,1-13.539,3.707A23.635,23.635,0,0,0,136.82,35.751a47.186,47.186,0,0,1-14.968,5.718,23.591,23.591,0,0,0-40.167,21.5A66.911,66.911,0,0,1,33.1,38.34a23.6,23.6,0,0,0,7.293,31.471A23.405,23.405,0,0,1,29.717,66.86c0,.1,0,.2,0,.3A23.585,23.585,0,0,0,48.625,90.269a23.662,23.662,0,0,1-10.644.408A23.6,23.6,0,0,0,60,107.046a47.583,47.583,0,0,1-34.9,9.76A66.673,66.673,0,0,0,61.232,127.4c43.356,0,67.066-35.917,67.066-67.068,0-1.021-.023-2.039-.069-3.048a47.8,47.8,0,0,0,11.764-12.2Z" transform="translate(-25.103 -34.028)" fill="#fff"/>
</svg>
