<svg xmlns="http://www.w3.org/2000/svg" width="43.146" height="41.22" viewBox="0 0 43.146 41.22">
  <g id="book_1_" data-name="book (1)" transform="translate(-10 -20.946)">
    <path id="Path_464" data-name="Path 464" d="M59.251,166.9v-19.14a1.773,1.773,0,0,1,1.521-1.754l-2.376-.02a1.775,1.775,0,0,0-1.776,1.774V166.9a1.775,1.775,0,0,0,1.776,1.774h2.631a1.775,1.775,0,0,1-1.776-1.774Z" transform="translate(-42.532 -114.078)" fill="#d4e1f4"/>
    <path id="Path_465" data-name="Path 465" d="M50.843,168.48H49.171v1.052h1.673a1.25,1.25,0,0,1,1.25,1.248v20.265a1.25,1.25,0,0,1-1.25,1.248H29.15v-3.1H28.1v6.025l-.683-.649a.683.683,0,0,0-.942,0l-.683.649V189.2H24.738v3.123L12.3,192.293a1.25,1.25,0,0,1-1.25-1.248V170.78a1.25,1.25,0,0,1,1.25-1.248h1.786V168.48H12.3a2.3,2.3,0,0,0-2.3,2.3v20.265a2.3,2.3,0,0,0,2.3,2.3l12.437.026v2.708a.684.684,0,0,0,1.155.5l1.051-1,1.051,1a.684.684,0,0,0,1.155-.5v-2.734H50.843a2.3,2.3,0,0,0,2.3-2.3V170.78a2.3,2.3,0,0,0-2.3-2.3Z" transform="translate(0 -134.596)" fill="#24e1b5"/>
    <g id="Group_188" data-name="Group 188" transform="translate(13.561 22.74)">
      <path id="Path_466" data-name="Path 466" d="M84.445,139.991H81.357v1.052h3.088a1.25,1.25,0,0,1,1.25,1.248v20.388H70.6a.8.8,0,0,0-.559.227l-.843.82-.175-17.544-1.052.011.175,17.51-.818-.8a.8.8,0,0,0-.559-.227H52.915a1.25,1.25,0,0,1-1.25-1.248v-19.14a1.249,1.249,0,0,1,1.245-1.248l4.292.036.009-1.052-4.3-.037a2.3,2.3,0,0,0-2.3,2.3v19.14a2.3,2.3,0,0,0,2.3,2.3H66.662l1.459,1.419a.8.8,0,0,0,1.117,0l1.459-1.419H86.045a.7.7,0,0,0,.7-.7V142.291A2.3,2.3,0,0,0,84.445,139.991Z" transform="translate(-50.612 -131.345)" fill="#bf9f35"/>
      <path id="Path_467" data-name="Path 467" d="M150.954,250.9h-5.145a.526.526,0,1,0,0,1.052h5.145a.526.526,0,1,0,0-1.052Z" transform="translate(-136.981 -232.528)" fill="#bf9f35"/>
      <path id="Path_468" data-name="Path 468" d="M93.321,250.9H90.389a.526.526,0,1,0,0,1.052h2.932a.526.526,0,0,0,0-1.052Z" transform="translate(-86.421 -232.528)" fill="#bf9f35"/>
      <path id="Path_469" data-name="Path 469" d="M191.014,301.479h-1.295a.526.526,0,1,0,0,1.052h1.295a.526.526,0,1,0,0-1.052Z" transform="translate(-177.04 -278.672)" fill="#bf9f35"/>
      <path id="Path_470" data-name="Path 470" d="M89.863,302.005a.526.526,0,0,0,.526.526h6.757a.526.526,0,1,0,0-1.052H90.389a.526.526,0,0,0-.526.526Z" transform="translate(-86.421 -278.672)" fill="#bf9f35"/>
      <path id="Path_471" data-name="Path 471" d="M393.694,251.952a.526.526,0,1,0,0-1.052h-1.28a.526.526,0,0,0,0,1.052Z" transform="translate(-361.959 -232.528)" fill="#bf9f35"/>
      <path id="Path_472" data-name="Path 472" d="M299.741,250.9H292.92a.526.526,0,0,0,0,1.052h6.821a.526.526,0,0,0,0-1.052Z" transform="translate(-271.191 -232.528)" fill="#bf9f35"/>
      <path id="Path_473" data-name="Path 473" d="M334.36,302.005a.526.526,0,0,0,.526.526h6.325a.526.526,0,1,0,0-1.052h-6.325A.526.526,0,0,0,334.36,302.005Z" transform="translate(-309.477 -278.672)" fill="#bf9f35"/>
      <path id="Path_474" data-name="Path 474" d="M292.92,302.531h1.6a.526.526,0,1,0,0-1.052h-1.6a.526.526,0,1,0,0,1.052Z" transform="translate(-271.191 -278.672)" fill="#bf9f35"/>
      <path id="Path_475" data-name="Path 475" d="M155.711,43.417a2.017,2.017,0,1,0-2.017,2.017A2.017,2.017,0,0,0,155.711,43.417Zm-2.982,0a.965.965,0,1,1,.965.965A.965.965,0,0,1,152.729,43.417Z" transform="translate(-142.814 -41.4)" fill="#bf9f35"/>
      <path id="Path_476" data-name="Path 476" d="M138.73,94.109l1.051.062a1.579,1.579,0,0,1,1.576-1.484h1.052a1.58,1.58,0,0,1,1.576,1.482l1.05-.063a2.633,2.633,0,0,0-2.626-2.471h-1.052a2.633,2.633,0,0,0-2.626,2.474Z" transform="translate(-131.003 -87.23)" fill="#bf9f35"/>
    </g>
    <path id="Path_477" data-name="Path 477" d="M132.082,352.056a.526.526,0,1,0,0,1.052h6.349a.526.526,0,0,0,0-1.052Z" transform="translate(-110.896 -302.073)" fill="#1ae5be"/>
    <path id="Path_478" data-name="Path 478" d="M90.389,353.108h1.717a.526.526,0,0,0,0-1.052H90.389a.526.526,0,0,0,0,1.052Z" transform="translate(-72.859 -302.073)" fill="#1ae5be"/>
    <path id="Path_479" data-name="Path 479" d="M369.069,352.056a.526.526,0,0,0,0,1.052H372.4a.526.526,0,1,0,0-1.052Z" transform="translate(-327.101 -302.073)" fill="#1ae5be"/>
    <path id="Path_480" data-name="Path 480" d="M292.92,352.056a.526.526,0,0,0,0,1.052h4.557a.526.526,0,1,0,0-1.052Z" transform="translate(-257.63 -302.073)" fill="#1ae5be"/>
    <path id="Path_481" data-name="Path 481" d="M117.343,32.851a5.209,5.209,0,0,0,5.205,5.2h14.974a5.2,5.2,0,0,0,1.426-10.2,5.209,5.209,0,0,0-6.328-4.462,7.082,7.082,0,0,0-7.864-1.762,5.031,5.031,0,0,0-6.205,7.782A5.671,5.671,0,0,0,117.343,32.851Zm10.072-10.692a6.012,6.012,0,0,1,4.621,2.157.526.526,0,0,0,.554.166,4.154,4.154,0,0,1,5.337,3.808.526.526,0,0,0,.422.5A4.148,4.148,0,0,1,137.522,37H122.549a4.155,4.155,0,0,1-4.153-4.148,4.654,4.654,0,0,1,.951-2.751,5.032,5.032,0,0,0,6.418-7.711,6.015,6.015,0,0,1,1.651-.23ZM122.242,22a3.981,3.981,0,1,1-3.988,3.981A3.981,3.981,0,0,1,122.242,22Z" transform="translate(-97.801 0)" fill="#24e1b5"/>
  </g>
</svg>
