<svg xmlns="http://www.w3.org/2000/svg" width="50.611" height="70.341" viewBox="0 0 50.611 70.341">
  <g id="graduation" transform="translate(-79 -10.002)">
    <path id="Path_181" data-name="Path 181" d="M95.341,220.363a24.7,24.7,0,0,1-6.052-16.249,23.765,23.765,0,0,1,5.886-16.34,22.756,22.756,0,0,1,2.838-2.638l-2.475-.621a1.168,1.168,0,0,1-.55-.307,23.071,23.071,0,0,0-4.1,3.566A23.766,23.766,0,0,0,85,204.115a24.7,24.7,0,0,0,6.052,16.249,24.3,24.3,0,0,0,17.761,8.414q.315.009.635.009t.635-.009q.761-.02,1.51-.087A24.315,24.315,0,0,1,95.341,220.363Z" transform="translate(-5.142 -149.3)" fill="#d4e1f4"/>
    <path id="Path_182" data-name="Path 182" d="M104.306,225.4a25.446,25.446,0,0,0,25.306-25.529,28.249,28.249,0,0,0-2.38-11.673,22.468,22.468,0,0,0-7.092-8.921l-1.026,1.375a20.5,20.5,0,0,1,2.915,2.644,24.241,24.241,0,0,1-5.08,4.185,25.938,25.938,0,0,0-3.383-6.174l-1.375,1.026a24.326,24.326,0,0,1,3.251,6.013,23.964,23.964,0,0,1-10.28,2.812v-7.439h-1.716v7.435a23.819,23.819,0,0,1-10.317-2.828,23.3,23.3,0,0,1,3.471-6.208l-1.349-1.06a24.945,24.945,0,0,0-3.624,6.395,23.714,23.714,0,0,1-4.718-3.91,22.351,22.351,0,0,1,3.42-2.871l-.968-1.416A23.047,23.047,0,0,0,81.652,188,26.194,26.194,0,0,0,79,199.867,25.446,25.446,0,0,0,104.306,225.4Zm-14.8-24.671a34.6,34.6,0,0,0,1.6,9.863,25.3,25.3,0,0,0-5.159,4.212,23.828,23.828,0,0,1-5.213-14.075Zm38.372,0a23.828,23.828,0,0,1-5.21,14.072,25.046,25.046,0,0,0-5.153-4.233,34.615,34.615,0,0,0,1.589-9.839Zm-11.888,8.967a24.8,24.8,0,0,0-10.828-2.833v-6.134h12.225A33.048,33.048,0,0,1,115.991,209.692Zm-12.543,13.761a22.115,22.115,0,0,1-10.257-12.089,23.377,23.377,0,0,1,10.257-2.783Zm1.716-14.877a23.1,23.1,0,0,1,10.267,2.763,22.122,22.122,0,0,1-10.267,12.114Zm-1.716-1.712a25.077,25.077,0,0,0-10.819,2.854,33.035,33.035,0,0,1-1.406-8.993h12.225ZM87.07,216.108a23.592,23.592,0,0,1,4.621-3.863,24.414,24.414,0,0,0,8.228,11.021A23.518,23.518,0,0,1,87.07,216.108Zm21.622,7.158a24.419,24.419,0,0,0,8.237-11.044,23.341,23.341,0,0,1,4.614,3.883A23.518,23.518,0,0,1,108.692,223.266Zm14.443-38.645a24.425,24.425,0,0,1,4.748,14.388h-8.776a34.83,34.83,0,0,0-1.574-9.88,26.055,26.055,0,0,0,5.6-4.508ZM116,189.981a33.292,33.292,0,0,1,1.39,9.028H105.163v-6.136A25.647,25.647,0,0,0,116,189.981Zm-12.553,2.888v6.14H91.221a33.3,33.3,0,0,1,1.35-9.04A25.513,25.513,0,0,0,103.448,192.869Zm-20.262-4.1a20.99,20.99,0,0,1,2.573-3.953,25.475,25.475,0,0,0,5.284,4.283,34.8,34.8,0,0,0-1.54,9.906H80.729A24.172,24.172,0,0,1,83.186,188.774Z" transform="translate(0 -145.053)" fill="#bf9f35"/>
    <g id="Group_31" data-name="Group 31" transform="translate(80.659 10.002)">
      <path id="Path_183" data-name="Path 183" d="M306.491,96.981a.856.856,0,0,0,.282-.048l1.746-.608a.858.858,0,0,0-.564-1.62l-1.746.608a.858.858,0,0,0,.282,1.668Z" transform="translate(-274.89 -82.554)" fill="#24e1b5"/>
      <path id="Path_184" data-name="Path 184" d="M91.612,19.593l.045.022,2.279.779V29.76a.858.858,0,0,0,1.716,0V20.982l2.848.974L98.59,34.09a2.021,2.021,0,0,0,1.544,1.959l13.618,3.414a2.2,2.2,0,0,0,.509.059,2.137,2.137,0,0,0,.493-.057l14.306-3.226a2.053,2.053,0,0,0,1.576-1.968l.216-12.8,5.387-1.875.055-.029a1.779,1.779,0,0,0-.245-3.26l-19.326-6.076a4.3,4.3,0,0,0-2.67-.031L91.876,16.286l-.03.009a1.779,1.779,0,0,0-.234,3.3Zm.738-1.658,22.17-6.087.031-.009a2.6,2.6,0,0,1,1.628.018L135.5,17.933c.014.005.029.014.031.051a.065.065,0,0,1-.009.043L126,21.341a.858.858,0,0,0,.564,1.62l2.555-.89-.205,12.17a.337.337,0,0,1-.247.326l-14.306,3.226a.466.466,0,0,1-.208,0l-13.617-3.414a.312.312,0,0,1-.236-.306l-.086-11.533,12.394,4.24a4.324,4.324,0,0,0,3.088-.039l4.551-1.584a.858.858,0,0,0-.564-1.62l-4.569,1.591-.038.014a2.611,2.611,0,0,1-1.883.026L97.835,19.915l9.874-2.432a.858.858,0,1,0-.41-1.666L94.832,18.888l-2.5-.855a.058.058,0,0,1-.012-.047c0-.034.015-.045.029-.05Z" transform="translate(-90.605 -10.002)" fill="#24e1b5"/>
    </g>
  </g>
</svg>
