<svg xmlns="http://www.w3.org/2000/svg" width="15.173" height="12.331" viewBox="0 0 15.173 12.331">
  <g id="Group_116" data-name="Group 116" transform="translate(0 0)">
    <path id="Path_331" data-name="Path 331" d="M40.276,35.488a6.211,6.211,0,0,1-1.788.49,3.121,3.121,0,0,0,1.369-1.722,6.232,6.232,0,0,1-1.977.755,3.116,3.116,0,0,0-5.3,2.84A8.837,8.837,0,0,1,26.159,34.6a3.116,3.116,0,0,0,.963,4.156,3.091,3.091,0,0,1-1.41-.39c0,.013,0,.026,0,.039a3.115,3.115,0,0,0,2.5,3.052,3.125,3.125,0,0,1-1.406.054,3.116,3.116,0,0,0,2.908,2.162A6.284,6.284,0,0,1,25.1,44.96,8.853,8.853,0,0,0,38.732,37.5c0-.135,0-.269-.009-.4a6.313,6.313,0,0,0,1.554-1.611Z" transform="translate(-25.103 -34.028)" fill="#bf9f35"/>
  </g>
</svg>
