<svg xmlns="http://www.w3.org/2000/svg" width="67.512" height="65.452" viewBox="0 0 67.512 65.452">
  <g id="open-book" transform="translate(-10 -17.5)">
    <path id="Path_185" data-name="Path 185" d="M60.737,178.716v-29.95a2.775,2.775,0,0,1,2.379-2.744L59.4,145.99a2.777,2.777,0,0,0-2.779,2.776v29.95a2.777,2.777,0,0,0,2.779,2.776h4.117a2.777,2.777,0,0,1-2.779-2.776Z" transform="translate(-40.223 -110.859)" fill="#d4e1f4"/>
    <path id="Path_186" data-name="Path 186" d="M73.91,172.039H71.292v1.647H73.91a1.956,1.956,0,0,1,1.956,1.952v31.7a1.956,1.956,0,0,1-1.956,1.952H39.965v-4.846H38.319v9.425l-1.068-1.015a1.07,1.07,0,0,0-1.474,0l-1.068,1.015v-9.425H33.062v4.886l-19.459-.04a1.956,1.956,0,0,1-1.956-1.952v-31.7a1.956,1.956,0,0,1,1.956-1.952H16.4v-1.647H13.6a3.6,3.6,0,0,0-3.6,3.6v31.7a3.6,3.6,0,0,0,3.6,3.6l19.461.04v4.236a1.07,1.07,0,0,0,1.807.775l1.645-1.563,1.645,1.563a1.07,1.07,0,0,0,1.807-.775V210.94H73.91a3.6,3.6,0,0,0,3.6-3.6v-31.7a3.6,3.6,0,0,0-3.6-3.6Z" transform="translate(0 -133.333)" fill="#24e1b5"/>
    <g id="Group_32" data-name="Group 32" transform="translate(15.573 34.64)">
      <path id="Path_187" data-name="Path 187" d="M103.569,142.567l-9.679-.158-.027,1.647,9.692.158a1.956,1.956,0,0,1,1.956,1.952v31.9H81.884a1.247,1.247,0,0,0-.874.355L79.691,179.7l-.232-23.143-1.647.016.231,23.089-1.28-1.245a1.247,1.247,0,0,0-.874-.355H54.218a1.956,1.956,0,0,1-1.956-1.952V146.165a1.956,1.956,0,0,1,1.956-1.952h9.188v-1.647H54.218a3.6,3.6,0,0,0-3.6,3.6v29.943a3.6,3.6,0,0,0,3.6,3.6H75.73l2.283,2.22a1.247,1.247,0,0,0,1.749,0l2.283-2.22H106.06a1.1,1.1,0,0,0,1.1-1.1V146.165A3.6,3.6,0,0,0,103.569,142.567Z" transform="translate(-50.616 -142.409)" fill="#bf9f35"/>
      <path id="Path_188" data-name="Path 188" d="M181.444,256.092a.823.823,0,1,0,0-1.647h-3.711a.823.823,0,1,0,0,1.647Z" transform="translate(-159.579 -239.072)" fill="#bf9f35"/>
      <path id="Path_189" data-name="Path 189" d="M99.748,254.445H90.686a.823.823,0,1,0,0,1.647h9.062a.823.823,0,1,0,0-1.647Z" transform="translate(-84.478 -239.072)" fill="#bf9f35"/>
      <path id="Path_190" data-name="Path 190" d="M126.824,305.835a.823.823,0,0,0,.823.823h10.584a.823.823,0,1,0,0-1.647H127.647A.823.823,0,0,0,126.824,305.835Z" transform="translate(-116.367 -282.7)" fill="#bf9f35"/>
      <path id="Path_191" data-name="Path 191" d="M90.686,306.659h2.1a.823.823,0,1,0,0-1.647h-2.1a.823.823,0,1,0,0,1.647Z" transform="translate(-84.478 -282.7)" fill="#bf9f35"/>
      <path id="Path_192" data-name="Path 192" d="M176.941,355.58h-4.427a.823.823,0,1,0,0,1.647h4.427a.823.823,0,0,0,0-1.647Z" transform="translate(-155.076 -326.329)" fill="#bf9f35"/>
      <path id="Path_193" data-name="Path 193" d="M90.686,357.227h8.286a.823.823,0,1,0,0-1.647H90.686a.823.823,0,1,0,0,1.647Z" transform="translate(-84.478 -326.329)" fill="#bf9f35"/>
      <path id="Path_194" data-name="Path 194" d="M140.917,203.877h-.494a.823.823,0,1,0,0,1.647h.494a.823.823,0,1,0,0-1.647Z" transform="translate(-127.39 -195.442)" fill="#bf9f35"/>
      <path id="Path_195" data-name="Path 195" d="M90.686,205.524H94.53a.823.823,0,1,0,0-1.647H90.686a.823.823,0,1,0,0,1.647Z" transform="translate(-84.478 -195.442)" fill="#bf9f35"/>
      <path id="Path_196" data-name="Path 196" d="M388.125,203.877H385.4a.823.823,0,1,0,0,1.647h2.729a.823.823,0,1,0,0-1.647Z" transform="translate(-338.747 -195.442)" fill="#bf9f35"/>
      <path id="Path_197" data-name="Path 197" d="M353.556,205.524a.823.823,0,1,0,0-1.647h-1.6a.823.823,0,1,0,0,1.647Z" transform="translate(-309.892 -195.442)" fill="#bf9f35"/>
      <path id="Path_198" data-name="Path 198" d="M390.8,254.445a.823.823,0,1,0,0,1.647h2.266a.823.823,0,0,0,0-1.647Z" transform="translate(-343.407 -239.072)" fill="#bf9f35"/>
      <path id="Path_199" data-name="Path 199" d="M292.394,255.268a.823.823,0,0,0,.823.823h10.421a.823.823,0,1,0,0-1.647H293.217A.823.823,0,0,0,292.394,255.268Z" transform="translate(-259.217 -239.072)" fill="#bf9f35"/>
      <path id="Path_200" data-name="Path 200" d="M339.441,305.835a.823.823,0,0,0,.823.823h9.2a.823.823,0,1,0,0-1.647h-9.2A.823.823,0,0,0,339.441,305.835Z" transform="translate(-299.809 -282.7)" fill="#bf9f35"/>
      <path id="Path_201" data-name="Path 201" d="M293.217,306.659h3.56a.823.823,0,1,0,0-1.647h-3.56a.823.823,0,1,0,0,1.647Z" transform="translate(-259.217 -282.7)" fill="#bf9f35"/>
      <path id="Path_202" data-name="Path 202" d="M361.324,355.58H354.01a.823.823,0,1,0,0,1.647h7.314a.823.823,0,0,0,0-1.647Z" transform="translate(-311.668 -326.329)" fill="#bf9f35"/>
      <path id="Path_203" data-name="Path 203" d="M293.217,357.227h5.371a.823.823,0,0,0,0-1.647h-5.371a.823.823,0,1,0,0,1.647Z" transform="translate(-259.217 -326.329)" fill="#bf9f35"/>
    </g>
    <path id="Path_204" data-name="Path 204" d="M169.2,36.612a.823.823,0,0,0,.743-.819V31.325a.823.823,0,0,0-.744-.819l-2.732-.263A12.834,12.834,0,0,0,165.1,27l1.736-2.093a.823.823,0,0,0-.048-1.1l-3.115-3.151a.823.823,0,0,0-1.11-.056l-2.1,1.738a13.122,13.122,0,0,0-3.24-1.367l-.263-2.727a.823.823,0,0,0-.819-.744h-4.473a.823.823,0,0,0-.819.744l-.263,2.727a12.871,12.871,0,0,0-3.244,1.363l-2.1-1.735a.823.823,0,0,0-1.106.052L140.981,23.8a.823.823,0,0,0-.052,1.108l1.74,2.1a13.1,13.1,0,0,0-1.368,3.234l-2.732.263a.823.823,0,0,0-.745.819v4.467a.823.823,0,0,0,.744.819l2.731.263a12.842,12.842,0,0,0,1.365,3.238l-1.736,2.093a.823.823,0,0,0,.052,1.108l3.155,3.151a.823.823,0,0,0,1.106.052l2.1-1.738a13.123,13.123,0,0,0,3.24,1.367l.263,2.727a.823.823,0,0,0,.819.744h4.473a.823.823,0,0,0,.819-.744l.263-2.727a12.875,12.875,0,0,0,3.244-1.364l2.1,1.734a.823.823,0,0,0,1.107-.052l3.155-3.151a.823.823,0,0,0,.052-1.108l-1.74-2.1a13.1,13.1,0,0,0,1.368-3.234Zm-4.159-.674a11.471,11.471,0,0,1-1.6,3.8.823.823,0,0,0,.058.972l1.638,1.975-2.094,2.091-1.979-1.637a.823.823,0,0,0-.981-.051,11.152,11.152,0,0,1-3.791,1.6.823.823,0,0,0-.646.726l-.248,2.566h-2.978l-.248-2.566a.823.823,0,0,0-.646-.726,11.5,11.5,0,0,1-3.8-1.6.823.823,0,0,0-.971.058l-1.979,1.637-2.094-2.091,1.637-1.975a.823.823,0,0,0,.051-.983,11.12,11.12,0,0,1-1.6-3.785.823.823,0,0,0-.726-.645l-2.57-.247V32.073l2.57-.247a.823.823,0,0,0,.726-.645,11.47,11.47,0,0,1,1.6-3.8.823.823,0,0,0-.058-.972l-1.637-1.975,2.094-2.091,1.979,1.637a.823.823,0,0,0,.981.051,11.151,11.151,0,0,1,3.791-1.6.823.823,0,0,0,.646-.726l.248-2.566h2.978l.248,2.566a.823.823,0,0,0,.646.726,11.5,11.5,0,0,1,3.8,1.6.823.823,0,0,0,.971-.058l1.975-1.633,2.061,2.085-1.641,1.978a.823.823,0,0,0-.051.983,11.118,11.118,0,0,1,1.6,3.785.823.823,0,0,0,.726.645l2.57.247v2.972l-2.531.247A.823.823,0,0,0,165.039,35.937Z" transform="translate(-110.284 0)" fill="#24e1b5"/>
    <path id="Path_205" data-name="Path 205" d="M200.06,70.778a8.748,8.748,0,1,0,8.758,8.748A8.748,8.748,0,0,0,200.06,70.778Zm0,15.85a7.1,7.1,0,1,1,7.112-7.1A7.1,7.1,0,0,1,200.06,86.628Z" transform="translate(-156.441 -45.967)" fill="#24e1b5"/>
  </g>
</svg>
