<svg xmlns="http://www.w3.org/2000/svg" width="80" height="80" viewBox="0 0 80 80">
  <g id="Group_4744" data-name="Group 4744" transform="translate(-1190 -1986)">
    <rect id="Rectangle_16" data-name="Rectangle 16" width="80" height="80" transform="translate(1190 1986)" fill="none"/>
    <g id="audio-book" transform="translate(1189.641 1971.615)">
      <path id="Path_224" data-name="Path 224" d="M19.7,36.766A4.835,4.835,0,0,1,24.6,32H20.9A4.835,4.835,0,0,0,16,36.766v45.75a4.8,4.8,0,0,1,3.7-4.622Z" transform="translate(-5.26 -5.26)" fill="#bf9f35"/>
      <g id="Group_42" data-name="Group 42" transform="translate(10 26)">
        <path id="Path_225" data-name="Path 225" d="M47.012,82.029V73.114l1.537-.006a.74.74,0,0,0,.738-.74V35.741H47.805V71.63l-32.163.12a5.689,5.689,0,0,0-4.161,1.793V31.506a4.088,4.088,0,0,1,3.871-4.014V37.975a1.062,1.062,0,0,0,1.628.9l.075-.047,2.1-2.165,2.1,2.165.075.047a1.062,1.062,0,0,0,1.628-.9V27.481H47.806v5.311h1.481V26.74a.74.74,0,0,0-.74-.74h-32.9A5.582,5.582,0,0,0,10,31.506V77.264a5.582,5.582,0,0,0,5.643,5.506H46.271a.74.74,0,0,0,.74-.74Zm-25.528-45.1L19.8,35.2l-.075-.047a1.069,1.069,0,0,0-1.131,0l-.075.047-1.685,1.734V27.481h4.651Zm24.047,44.36H15.643a4.031,4.031,0,1,1,0-8.058l29.885-.112Z" transform="translate(-10 -26)" fill="#bf9f35"/>
        <path id="Path_226" data-name="Path 226" d="M150.233,208.478a.74.74,0,0,0-.74-.74h-2.734a.74.74,0,1,0,0,1.481h2.734A.74.74,0,0,0,150.233,208.478Z" transform="translate(-129.232 -185.309)" fill="#bf9f35"/>
        <path id="Path_227" data-name="Path 227" d="M64.608,209.219h7.422a.74.74,0,0,0,0-1.481H64.608a.74.74,0,0,0,0,1.481Z" transform="translate(-57.22 -185.309)" fill="#bf9f35"/>
        <path id="Path_228" data-name="Path 228" d="M102.039,257.666h-6.6a.74.74,0,1,0,0,1.481h6.6a.74.74,0,1,0,0-1.481Z" transform="translate(-84.247 -229.075)" fill="#bf9f35"/>
        <path id="Path_229" data-name="Path 229" d="M64.608,259.147h1.133a.74.74,0,1,0,0-1.481H64.608a.74.74,0,1,0,0,1.481Z" transform="translate(-57.22 -229.075)" fill="#bf9f35"/>
        <path id="Path_230" data-name="Path 230" d="M148.872,307.666h-.005a.743.743,0,1,0,.005,0Z" transform="translate(-131.079 -272.905)" fill="#bf9f35"/>
        <path id="Path_231" data-name="Path 231" d="M64.608,309.147h7.674a.74.74,0,1,0,0-1.481H64.608a.74.74,0,1,0,0,1.481Z" transform="translate(-57.22 -272.905)" fill="#bf9f35"/>
      </g>
      <path id="Path_232" data-name="Path 232" d="M215.221,91.283a17.649,17.649,0,0,0-5.263-12.017,18.159,18.159,0,0,0-25.452,0,17.653,17.653,0,0,0-5.265,12.066,2.974,2.974,0,0,0-1.97,2.795v9.137a2.976,2.976,0,0,0,2.975,2.97h5.48a1.018,1.018,0,0,0,1.017-1.017V92.176a1.018,1.018,0,0,0-1.017-1.017H183.7a13.292,13.292,0,0,1,3.951-8.77,13.705,13.705,0,0,1,19.2,0,13.289,13.289,0,0,1,3.951,8.77h-1.913a1.018,1.018,0,0,0-1.017,1.017v13.043a1.018,1.018,0,0,0,1.017,1.017h2.924a5.215,5.215,0,0,1-3.474,4.188l-.015.005a5.266,5.266,0,0,1-4.092-.3l-3.658-1.879a7.284,7.284,0,0,0-4.663-.9v1.518a5.518,5.518,0,0,1,3.986.7l3.658,1.879a6.753,6.753,0,0,0,5.248.38l.015-.005a6.7,6.7,0,0,0,4.488-5.589h1.061a2.976,2.976,0,0,0,2.976-2.97V94.129A2.975,2.975,0,0,0,215.221,91.283Zm-31.5,1.358h1.543v12.115h-1.543Zm-1.481,12.115h-1.991a1.493,1.493,0,0,1-1.495-1.489V94.129a1.493,1.493,0,0,1,1.495-1.489h1.991Zm28.661,0h-1.543V92.64H210.9Zm-3-23.42a15.186,15.186,0,0,0-21.285,0,14.762,14.762,0,0,0-4.394,9.822H180.73a16.18,16.18,0,0,1,4.818-10.839,16.678,16.678,0,0,1,23.369,0,16.177,16.177,0,0,1,4.818,10.84h-1.446A14.759,14.759,0,0,0,207.9,81.336Zm7.971,21.93a1.493,1.493,0,0,1-1.495,1.489H212.38V92.64h1.991a1.493,1.493,0,0,1,1.495,1.489Z" transform="translate(-146.628 -42.13)" fill="#bf9f35"/>
    </g>
  </g>
</svg>
