<svg xmlns="http://www.w3.org/2000/svg" width="62.835" height="69.786" viewBox="0 0 62.835 69.786">
  <g id="users" transform="translate(-34.503 -10)">
    <path id="Path_158" data-name="Path 158" d="M213.01,239.458v-3.416a6.7,6.7,0,0,1,4.587-6.356,6.687,6.687,0,0,0-2.109-.341h-.035a6.7,6.7,0,0,0-6.7,6.7v3.415a6.7,6.7,0,0,0,6.7,6.7h.035a6.692,6.692,0,0,0,2.11-.34A6.7,6.7,0,0,1,213.01,239.458Z" transform="translate(-149.536 -188.233)" fill="#d4e1f4"/>
    <path id="Path_159" data-name="Path 159" d="M175.566,365.64A7.563,7.563,0,0,0,168.2,373.2V384.13h4.255V373.2a7.523,7.523,0,0,1,1.254-4.173,7.6,7.6,0,0,1,2.683-2.466A6.567,6.567,0,0,1,175.566,365.64Z" transform="translate(-114.733 -305.196)" fill="#d4e1f4"/>
    <path id="Path_160" data-name="Path 160" d="M210.3,241.855h.036a7.557,7.557,0,0,0,7.548-7.548v-3.416a7.557,7.557,0,0,0-7.548-7.548H210.3a7.556,7.556,0,0,0-7.548,7.548v3.416a7.557,7.557,0,0,0,7.548,7.548Zm-5.846-10.964a5.852,5.852,0,0,1,5.846-5.846h.036a5.852,5.852,0,0,1,5.846,5.846v3.416a5.852,5.852,0,0,1-5.846,5.846H210.3a5.852,5.852,0,0,1-5.846-5.846Z" transform="translate(-144.384 -183.082)" fill="#bf9f35"/>
    <path id="Path_161" data-name="Path 161" d="M353.844,270.052h.032a6.72,6.72,0,0,0,6.713-6.713v-2.99a6.721,6.721,0,0,0-6.713-6.713h-.032a6.72,6.72,0,0,0-6.713,6.713v2.99A6.72,6.72,0,0,0,353.844,270.052Zm-5.011-9.7a5.017,5.017,0,0,1,5.011-5.011h.032a5.017,5.017,0,0,1,5.011,5.011v2.99a5.016,5.016,0,0,1-5.011,5.011h-.032a5.016,5.016,0,0,1-5.011-5.011Z" transform="translate(-268.285 -209.079)" fill="#bf9f35"/>
    <path id="Path_162" data-name="Path 162" d="M90.331,361.535a1.038,1.038,0,0,0-.9.521,4.839,4.839,0,0,1-7.641-.187.85.85,0,0,0-.706-.346,7.377,7.377,0,0,0-3.787,1.146,8.378,8.378,0,0,0-5.94-3.019c-.449-.028-.669.24-.923.551a5.649,5.649,0,0,1-8.921-.219.843.843,0,0,0-.706-.346,8.357,8.357,0,0,0-5.8,2.534c-.16.164-.31.334-.455.508a7.424,7.424,0,0,0-3.532-1.144,1.035,1.035,0,0,0-.9.521,4.839,4.839,0,0,1-7.641-.187.848.848,0,0,0-.706-.346,7.471,7.471,0,0,0-7.276,7.471v6.622a.851.851,0,0,0,.851.851H52.616v2.511a.851.851,0,0,0,.851.851H78.4a.851.851,0,0,0,.851-.851v-2.511H96.487a.851.851,0,0,0,.851-.851v-6.622A7.478,7.478,0,0,0,90.331,361.535ZM36.2,374.766v-5.771a5.808,5.808,0,0,1,5.2-5.745,6.541,6.541,0,0,0,9.916.023,5.722,5.722,0,0,1,2.277.819,8.386,8.386,0,0,0-.986,3.959v6.715Zm41.344,3.362H54.318V368.051a6.713,6.713,0,0,1,6.119-6.689,7.351,7.351,0,0,0,11.228.025,6.72,6.72,0,0,1,5.883,6.665Zm18.087-3.362H79.251v-6.715a8.379,8.379,0,0,0-1-3.968,5.673,5.673,0,0,1,2.464-.833,6.541,6.541,0,0,0,9.917.024,5.776,5.776,0,0,1,5,5.721Z" transform="translate(0 -300.044)" fill="#bf9f35"/>
    <path id="Path_163" data-name="Path 163" d="M76.7,270.052h.032a6.72,6.72,0,0,0,6.713-6.713v-2.99a6.72,6.72,0,0,0-6.713-6.713H76.7a6.721,6.721,0,0,0-6.713,6.713v2.99A6.72,6.72,0,0,0,76.7,270.052Zm-5.011-9.7a5.016,5.016,0,0,1,5.011-5.011h.032a5.016,5.016,0,0,1,5.011,5.011v2.99a5.016,5.016,0,0,1-5.011,5.011H76.7a5.016,5.016,0,0,1-5.011-5.011Z" transform="translate(-30.455 -209.079)" fill="#bf9f35"/>
    <g id="Group_22" data-name="Group 22" transform="translate(44.974 10)">
      <path id="Path_164" data-name="Path 164" d="M147.195,10H131.782a3.574,3.574,0,0,0-2.729,1.265A3.574,3.574,0,0,0,126.323,10h-15.11a2.892,2.892,0,0,0-2.889,2.888V34.865a2.892,2.892,0,0,0,2.889,2.888h15.676l1.6,1.559a1.161,1.161,0,0,0,1.628,0l1.6-1.559H147.2a2.892,2.892,0,0,0,2.888-2.888V12.888A2.892,2.892,0,0,0,147.195,10ZM127.92,36.381a1.16,1.16,0,0,0-.814-.331H111.213a1.188,1.188,0,0,1-1.187-1.186V12.888a1.188,1.188,0,0,1,1.187-1.186h15.11a1.879,1.879,0,0,1,1.877,1.881l.234,23.3Zm20.461-1.517a1.188,1.188,0,0,1-1.187,1.186H131.5a1.16,1.16,0,0,0-.814.33l-.553.539L129.9,13.574h0a1.877,1.877,0,0,1,1.877-1.872h15.413a1.188,1.188,0,0,1,1.187,1.186Z" transform="translate(-108.324 -10)" fill="#24e1b5"/>
      <path id="Path_165" data-name="Path 165" d="M181.068,41.328h-6.363a.851.851,0,1,0,0,1.7h6.363a.851.851,0,1,0,0-1.7Z" transform="translate(-164.559 -36.884)" fill="#24e1b5"/>
      <path id="Path_166" data-name="Path 166" d="M135.851,43.03h2.457a.851.851,0,1,0,0-1.7h-2.457a.851.851,0,1,0,0,1.7Z" transform="translate(-131.216 -36.884)" fill="#24e1b5"/>
      <path id="Path_167" data-name="Path 167" d="M210.676,80.344h-1.469a.851.851,0,1,0,0,1.7h1.469a.851.851,0,1,0,0-1.7Z" transform="translate(-194.167 -70.366)" fill="#24e1b5"/>
      <path id="Path_168" data-name="Path 168" d="M135.851,82.046h7.356a.851.851,0,1,0,0-1.7h-7.356a.851.851,0,1,0,0,1.7Z" transform="translate(-131.216 -70.366)" fill="#24e1b5"/>
      <path id="Path_169" data-name="Path 169" d="M166.24,119.361h-8.813a.851.851,0,0,0,0,1.7h8.813a.851.851,0,1,0,0-1.7Z" transform="translate(-149.732 -103.849)" fill="#24e1b5"/>
      <path id="Path_170" data-name="Path 170" d="M135.723,121.063h.019a.851.851,0,0,0,0-1.7h-.018a.851.851,0,1,0,0,1.7Z" transform="translate(-131.107 -103.849)" fill="#24e1b5"/>
      <path id="Path_171" data-name="Path 171" d="M214.475,158.378h-.841a.851.851,0,1,0,0,1.7h.841a.851.851,0,1,0,0-1.7Z" transform="translate(-197.967 -137.332)" fill="#24e1b5"/>
      <path id="Path_172" data-name="Path 172" d="M143.79,158.378h-7.939a.851.851,0,0,0,0,1.7h7.939a.851.851,0,1,0,0-1.7Z" transform="translate(-131.216 -137.332)" fill="#24e1b5"/>
      <path id="Path_173" data-name="Path 173" d="M355.363,41.328h-1.3a.851.851,0,1,0,0,1.7h1.3a.851.851,0,1,0,0-1.7Z" transform="translate(-318.473 -36.884)" fill="#24e1b5"/>
      <path id="Path_174" data-name="Path 174" d="M279.541,43.03h7.42a.851.851,0,1,0,0-1.7h-7.42a.851.851,0,1,0,0,1.7Z" transform="translate(-254.525 -36.884)" fill="#24e1b5"/>
      <path id="Path_175" data-name="Path 175" d="M321.208,80.344h-6.95a.851.851,0,1,0,0,1.7h6.95a.851.851,0,1,0,0-1.7Z" transform="translate(-284.318 -70.366)" fill="#24e1b5"/>
      <path id="Path_176" data-name="Path 176" d="M279.541,82.046h1.825a.851.851,0,1,0,0-1.7h-1.825a.851.851,0,1,0,0,1.7Z" transform="translate(-254.525 -70.366)" fill="#24e1b5"/>
      <path id="Path_177" data-name="Path 177" d="M349.487,119.361h-2.276a.851.851,0,0,0,0,1.7h2.276a.851.851,0,1,0,0-1.7Z" transform="translate(-312.597 -103.849)" fill="#24e1b5"/>
      <path id="Path_178" data-name="Path 178" d="M279.541,121.063h6.551a.851.851,0,0,0,0-1.7h-6.551a.851.851,0,0,0,0,1.7Z" transform="translate(-254.525 -103.849)" fill="#24e1b5"/>
      <path id="Path_179" data-name="Path 179" d="M317.312,158.378h-7.594a.851.851,0,0,0,0,1.7h7.594a.851.851,0,1,0,0-1.7Z" transform="translate(-280.422 -137.332)" fill="#24e1b5"/>
      <path id="Path_180" data-name="Path 180" d="M280.782,158.378h-1.241a.851.851,0,0,0,0,1.7h1.241a.851.851,0,0,0,0-1.7Z" transform="translate(-254.525 -137.332)" fill="#24e1b5"/>
    </g>
  </g>
</svg>
