<svg xmlns="http://www.w3.org/2000/svg" width="60.48" height="60.62" viewBox="0 0 60.48 60.62">
  <g id="webinar" transform="translate(-5 -4.419)">
    <path id="Path_206" data-name="Path 206" d="M14.614,61.666V27.845A2.936,2.936,0,0,1,17.55,24.91H13.936A2.936,2.936,0,0,0,11,27.845V61.666A2.936,2.936,0,0,0,13.936,64.6H17.55A2.936,2.936,0,0,1,14.614,61.666Z" transform="translate(-5.277 -18.022)" fill="#d4e1f4"/>
    <path id="Path_207" data-name="Path 207" d="M122.153,333.867h11.011v1.446H122.153Z" transform="translate(-103.039 -289.756)" fill="#bf9f35"/>
    <path id="Path_208" data-name="Path 208" d="M290.7,333.867H301.16v1.446H290.7Z" transform="translate(-251.283 -289.756)" fill="#bf9f35"/>
    <path id="Path_209" data-name="Path 209" d="M98.415,233.634H55.623v-1.867a.723.723,0,0,0-1.446,0v1.867H50.065a.723.723,0,1,0,0,1.446h4.112v1.867a.723.723,0,0,0,1.446,0V235.08H98.415a.723.723,0,0,0,0-1.446Z" transform="translate(-39 -199.321)" fill="#bf9f35"/>
    <path id="Path_210" data-name="Path 210" d="M228.581,97.9a.723.723,0,0,0,.988.265l1.629-.94a1.016,1.016,0,0,0,0-1.76L221.07,89.614a1.016,1.016,0,0,0-1.525.88v11.694a1.017,1.017,0,0,0,1.525.88l2.964-1.711a.723.723,0,0,0-.723-1.252l-2.32,1.34V91.238l8.84,5.1-.985.569A.723.723,0,0,0,228.581,97.9Z" transform="translate(-188.697 -74.811)" fill="#bf9f35"/>
    <path id="Path_211" data-name="Path 211" d="M269.1,160.647l-1.008.582a.723.723,0,1,0,.723,1.252l1.008-.582a.723.723,0,0,0-.723-1.252Z" transform="translate(-231.075 -137.321)" fill="#bf9f35"/>
    <path id="Path_212" data-name="Path 212" d="M61.822,4.419H8.658A3.663,3.663,0,0,0,5,8.077V41.9a3.662,3.662,0,0,0,3.654,3.658H9.784V44.11H8.658A2.215,2.215,0,0,1,6.446,41.9V8.077A2.215,2.215,0,0,1,8.658,5.865H61.822a2.215,2.215,0,0,1,2.213,2.213V41.9a2.215,2.215,0,0,1-1.6,2.124V45.5A3.664,3.664,0,0,0,65.48,41.9V8.077a3.663,3.663,0,0,0-3.658-3.658Z" transform="translate(0 0)" fill="#bf9f35"/>
    <g id="Group_33" data-name="Group 33" transform="translate(7.104 39.158)">
      <path id="Path_213" data-name="Path 213" d="M202.862,426.8h-5.833a4.342,4.342,0,0,0-4.337,4.337V435.8a.723.723,0,0,0,.723.723h13.062a.723.723,0,0,0,.723-.723v-4.664A4.342,4.342,0,0,0,202.862,426.8Zm2.891,8.278H194.137v-3.941a2.9,2.9,0,0,1,2.891-2.891h5.833a2.9,2.9,0,0,1,2.891,2.891Z" transform="translate(-172.182 -410.651)" fill="#24e1b5"/>
      <path id="Path_214" data-name="Path 214" d="M268.64,459.141h-1.3a.723.723,0,1,0,0,1.446h1.3a.723.723,0,1,0,0-1.446Z" transform="translate(-237.199 -439.095)" fill="#24e1b5"/>
      <path id="Path_215" data-name="Path 215" d="M32.635,426.8H26.8a4.342,4.342,0,0,0-4.337,4.337V435.8a.723.723,0,0,0,.723.723H36.249a.723.723,0,0,0,.723-.723v-4.664A4.342,4.342,0,0,0,32.635,426.8Zm2.891,8.278H23.91v-3.941a2.9,2.9,0,0,1,2.891-2.891h5.833a2.9,2.9,0,0,1,2.891,2.891Z" transform="translate(-22.464 -410.651)" fill="#24e1b5"/>
      <path id="Path_216" data-name="Path 216" d="M98.412,459.141h-1.3a.723.723,0,1,0,0,1.446h1.3a.723.723,0,1,0,0-1.446Z" transform="translate(-87.48 -439.095)" fill="#24e1b5"/>
      <path id="Path_217" data-name="Path 217" d="M366.892,421.875h-5.833a4.342,4.342,0,0,0-4.337,4.337v5.266a.723.723,0,0,0,.723.723h13.062a.723.723,0,0,0,.723-.723v-5.266A4.342,4.342,0,0,0,366.892,421.875Zm2.891,8.88H358.167v-4.543a2.9,2.9,0,0,1,2.891-2.892h5.833a2.9,2.9,0,0,1,2.891,2.892Z" transform="translate(-316.45 -406.319)" fill="#24e1b5"/>
      <path id="Path_218" data-name="Path 218" d="M432.669,454.213h-1.3a.723.723,0,0,0,0,1.446h1.3a.723.723,0,0,0,0-1.446Z" transform="translate(-381.466 -434.761)" fill="#24e1b5"/>
      <path id="Path_219" data-name="Path 219" d="M212.949,308.216a5.479,5.479,0,0,0,5.473-5.473v-4.512a5.479,5.479,0,0,0-5.473-5.473H208.2a.723.723,0,0,0-.723.723v9.262A5.479,5.479,0,0,0,212.949,308.216ZM208.922,294.2h4.027a4.034,4.034,0,0,1,3.834,2.8l-.57.212a2.574,2.574,0,0,1-2.284-.251,4.009,4.009,0,0,0-2.733-.6l-2.274.318Zm0,3.932,2.475-.346a2.564,2.564,0,0,1,1.747.386,4.025,4.025,0,0,0,3.572.392l.26-.1v4.272a4.027,4.027,0,0,1-8.054,0Z" transform="translate(-185.186 -292.758)" fill="#24e1b5"/>
      <path id="Path_220" data-name="Path 220" d="M42.722,308.217a5.479,5.479,0,0,0,5.473-5.473v-5.2h.133a.723.723,0,0,0,.723-.723,3.581,3.581,0,0,0-3.577-3.577,3.415,3.415,0,0,1-.993-.149,6.521,6.521,0,0,0-1.759-.339,5.479,5.479,0,0,0-5.473,5.473v4.512A5.479,5.479,0,0,0,42.722,308.217Zm4.027-10.125a1.283,1.283,0,0,1-.448-.545h.448Zm-8.054.139a4.031,4.031,0,0,1,4.027-4.027,5.493,5.493,0,0,1,1.339.277,4.863,4.863,0,0,0,1.413.211,2.135,2.135,0,0,1,2,1.408H42.609a1.727,1.727,0,0,0-1.726,1.725,1.469,1.469,0,0,1-1.467,1.467h-.722Zm0,2.508h.722a2.916,2.916,0,0,0,2.913-2.913.28.28,0,0,1,.28-.28H44.8a2.729,2.729,0,0,0,1.951,2.119v3.079a4.027,4.027,0,0,1-8.054,0Z" transform="translate(-35.468 -292.759)" fill="#24e1b5"/>
      <path id="Path_221" data-name="Path 221" d="M382.223,299.563H381.1a5.47,5.47,0,0,0-9.589,3.6v3.325a5.472,5.472,0,1,0,10.944.077,3.505,3.505,0,0,0-.229-7Zm-1.215,6.926a4.027,4.027,0,1,1-8.054,0v-1.533h.312a8.883,8.883,0,0,0,5.491-1.92,3.52,3.52,0,0,0,2.252,1.959Zm0-3.008a4.046,4.046,0,0,1-1.317-1.881.723.723,0,0,0-1.194-.268,7.419,7.419,0,0,1-5.231,2.178h-.312v-.346a4.027,4.027,0,1,1,8.054,0Zm1.446,1.634v-1.951a5.44,5.44,0,0,0-.443-2.155h.212a2.059,2.059,0,0,1,.231,4.106Z" transform="translate(-329.456 -297.097)" fill="#24e1b5"/>
    </g>
  </g>
</svg>
